<?xml version="1.0" encoding="UTF-8"?>
<svg id="Capa_1" xmlns="http://www.w3.org/2000/svg" version="1.1" viewBox="0 0 598.92 484.04">
  <!-- Generator: Adobe Illustrator 29.1.0, SVG Export Plug-In . SVG Version: 2.1.0 Build 142)  -->
  <defs>
    <style>
      .st0 {
        fill: #fff;
      }
    </style>
  </defs>
  <path class="st0" d="M42.12,282.05c-1.91-.23-11.59-2.79-10.79-5.56.43-1.48,5.57-.23,7.45-.41,4.2-.41,16.23-5.45,18.33-9.15,1.96-3.46.71-9.32,1.05-13.35,1.15-14.05,12.51-26.73,14.37-40.61,3.49-26.1,14.22-36.61,34.36-52.01,7.54-5.77,16.43-12.75,26.63-10.99,2.62.45,5,3.01,6.74,3.12s5.45-2.24,7.86-2.56c11.59-1.54,19.84,4.35,27.4,12.2,8.15-4.63,17.05-6.11,25.84-2.11,1.75.8,6.08,4.61,7.43,4.22,4.54-7.27,8.35-14.98,13.6-21.78,1.73-2.24,8.07-8.31,8.7-9.61.33-.68.65-1.92.26-2.53l-9.95-4.55c-3.72,1.83-1.93,5.5-2.42,8.69-.47,3.06-5.73,7.66-9.09,7.55-1.37-4.21-1.05-9.82,2.56-12.78,1.71-1.4,5.05-1.95,5.26-4.87l-12.65-2c-3.49,4.69,1.08,7.8-1.04,13.49-.61,1.65-4.2,6.03-6.17,5.48-1.76-.49-2.52-6.37-2.34-8.07.6-5.78,5.84-5.52,5.84-10.87l-10.31.81c-2.92,3.8.17,6.18.27,9.44.12,3.92-3.25,8.38-6.74,9.98-2.03.19-2.97-6.37-2.8-8.04.56-5.35,5.85-6.29,5.84-11.53-4.48,1.92-14.68,1.11-14.17,8.1.14,1.95,1.91,3.22,2.27,4.8,2.07,8.99-7.08,17.51-8.36,4.45-.65-6.55,3.29-6.46,3.27-12.11-.29-.33-7,2.66-7.65,3.45-.79.95-.83,2.77-1.59,3.98-2.42,3.85-8.35,6.25-12.7,4.38-1.3-1.81,3.24-7.71,4.98-8.84,3.46-2.25,7.58-1.1,11.08-3.64-1.17-2.44-4.24-1.68-6.43-2.39-4.47-1.45-7.62-6.63-7.26-11.3,3.04-.84,7.62.6,9.99,2.68,3.13,2.75,2.97,9.88,8.43,8.95.77-.13,6.25-2.38,6.36-2.87-.36-3.42-3.22-3.2-5.19-4.57-7.02-4.89-4.89-19.01,4.18-8.77,3.76,4.24,1.28,6.02,2.07,9.15,1.35,5.36,9.21,2.46,12.67.96-2.56-2.59-5.99-2.05-8.39-5.33-1.01-1.39-3.63-7.43-2.09-8.44,4.73-1.16,10.22,2.14,11.53,6.85.66,2.4-.11,6.1,3.36,7.12,5.11,1.49,14.02-1.84,19.77,1.18l1.25-.81c.32-5.14-1.84-10.6-4.48-14.97-5.86-1.96-8.43,4.35-14.01,4.2-1.68-.04-8.57-2.62-8.86-4.27,1-2.92,5.48-4.53,8.22-4.77,5.21-.47,6.67,3.95,12.02,1.9-.64-3.47-5.16-8.72-8.81-9.17-8.23-1.01-5.89,4.29-12.5,5.19-15.65,2.12-6.39-9.42,1.34-9.14,2.5.09,5.27,2.17,8.19,1.34-.81-3.26-7.06-5.85-10.06-5.82-5.3.06-4.36,2.2-6.95,4.17-3.24,2.47-9.52,2.18-12.76-.3-2.21-3.56,6.78-7.42,9.83-7.26,1.64.08,6.91,3.35,6.87.05-2.81.08-5.18-2.53-7.67-3.13-1.51-.37-3.09,0-4.78-.45-7.34-1.93-10.57-16.48,2.34-8.88,3.98,2.35,3.4,6.22,4.67,7.27,3.07,2.56,11.33,4.2,14.92,7.16,2.54.37-.92-3.65-1.29-4.6-2.2-5.65,2.41-16.58,6.68-9.31,1.62,2.76,2,6.08.98,9.15-.87,2.61-3.75,3.42-2.65,6.92.46,1.45,5.55,4.24,6.75,5.68,2.13-1.83-.48-4.13-.3-6.78.26-3.82,6.76-13.1,8.95-6.44,1.07,3.26,1.14,6.35-.83,9.28-1.47,2.19-5.22,3.15-4.89,6.23.2,1.85,5.75,6.16,5.92,8.85,3.4-.18,1.2-3.43,1.32-5.48.3-5.18,10.48-14.96,10.05-3.59-.33,8.66-4.08,6.29-7.47,10.04-2.52,2.79.29,6.05,1.13,9.37.64,2.5,1.13,8.35,2.84,9.6l15.2,6.84c4.52-4.08,9.43-7.78,14.65-10.93,1.47-.89,7.24-3.26,7.74-4.04.64-.98.14-1-.33-1.68-.79-1.13-9.78-9.93-10.65-10.29-6.09-2.47-9.49,3.55-16.79-1.52-9.84-6.84,4.01-8.74,8.79-5.53,2.05,1.38,1.78,4.12,4.9,3.27-1.94-2.1-5.8-10.49-7.85-11.44-2.9-1.33-5.52.81-8.06.75-4.63-.11-9.78-4.82-9.56-9.57,3.69-1.14,8.64-.9,11.72,1.63,1.95,1.61,1.67,4.72,4.6,4.23.2-5.83-5.67-6.98-6.37-12.29-.37-2.81.08-6.63,2.19-8.61,5.28,2.03,7.4,6.44,6.76,12.03-.13,1.16-1.14,2.07-1.11,3.19.02.87,2.08,6.33,2.78,6.32,2.58-1.66.62-3.97,1.02-6.81.48-3.45,4.16-6.41,6.95-8.14,4.54,2.11,2.92,10.65-.41,13.37-1.8,1.48-4.66,1.16-5.17,4.05-.45,2.52,1.92,5.01,3.16,7.06l1.53.23c2.35-1.05,1.5-3.63,2.18-5.71,1.43-4.31,6.34-6.82,10.64-7.29,1.54,3.42-.17,8.69-3,11.01-2.45,2.01-8.08,1.94-7.45,6.28.23,1.59,12.16,13.26,14.11,13.45,1.5.15,8.75-2.59,11.28-3.08,10.34-1.99,19.29-1.76,29.58.11,3.73.68,7.93,3.25,11.72,1.96,2.01-.69,12.36-11.09,12.46-13.12.19-3.59-4.59-3.63-6.78-4.95-5.26-3.15-7.7-17.21,3.17-9.06,4.41,3.3,4.49,10.07,4.99,10.38,2.6,1.64,5.18-4.88,6.34-6.68-.66-3.13-3.53-3.01-5.45-4.36-4.18-2.94-4.19-9.44-2.27-13.75,3.83.67,8.22,4.9,8.53,8.84.2,2.59-1.6,4.62.94,6.2.8.01,2.15-4.09,2.25-4.97.57-5.39-3.36-6.69,1.35-13.02,6.62-8.88,9.06,3.41,5.52,8.8-.73,1.11-6.69,6.83-4.87,8.54,1.61,1.51,2.46-1.98,2.96-2.59,3.13-3.77,8.81-4.66,13.35-3.27.4,4.6-5.21,9.47-9.56,9.57-2.7.06-5.91-2.32-8.94-.48l-6.97,11.18c4.45-1.02,3.96-4.22,9.45-4.6,14.85-1.04,4.2,10.25-3.73,9.05-3.13-.47-4.83-2.6-8.99-.83-.72.31-10.82,10.4-11.12,11.13-.46,1.1.44.88.83,1.12,3.27,1.93,6.88,3.35,10.23,5.48,2.44,1.55,11.09,8.74,12.8,8.74,2.69,0,10.4-6.06,14.04-6.2,1.79-1.14,1.64-5.81,2.31-8.16.53-1.86,3.02-7.5,2.85-8.68-.47-3.14-4.36-3.42-6.13-5.04-4.28-3.92-4.39-17.92,3.97-9.86,3.38,3.26,3.94,6.69,2.92,11.15,1.16.18,1.43.04,2.26-.68.46-.4,5.37-6.56,5.5-6.99.82-2.9-2.95-4.07-4.39-5.85-1.96-2.4-2.38-5.25-1.9-8.26,1.58-9.84,9.67-.13,9.55,5.1-.05,2.02-2.58,4.46-.23,6.19l6.78-5.66c.7-3.91-2.91-5.16-3.23-9.02-.17-2.09,1.06-8.39,2.8-9.38,4.59-2.61,6.39,7.79,5.61,11.18-.51,2.22-3.86,3.29-1.48,5.05,3.55-2.96,10.87-4.19,14.03-6.89,2.6-2.22,1.41-5.69,6.34-8.06,12.27-5.9,8.64,6.86,1.5,9.37-2.13.75-3.61.2-5.19.63-2.16.59-4.6,2.92-7.21,2.99-.17,3.1,5.11.02,6.88-.04,2.84-.1,8.03,2.47,9.49,4.91,2.46,4.11-5.98,4.58-8.71,4.13-5.27-.89-5.08-5.76-11.28-5.74-1.83,0-11.27,4.39-9.47,5.89,6.38-.32,11.49-3.26,16.7,2.59,4.84,5.44-3.83,5.85-7.83,5.22-5.86-.93-3.72-6.2-11.83-5.2-3.63.45-8.15,5.65-8.81,9.17,4.42,1.94,5.04-.59,7.95-1.52,5.72-1.85,18.02,3.55,7.54,7.54-8.88,3.38-13.61-5.88-18.32-2.79-1.65,1.08-5.62,13.86-4.36,15.11l21.78-1.44c3.03-1.43,2.01-4.61,2.72-7.1,1.2-4.18,7.26-7.27,11.47-6.53.43,3.74-1.08,8.98-4.53,10.85-1.85,1.01-4.93.69-5.29,3.22-.22,1.57.64.8,1.6,1.01,1.92.42,5.9,1.55,7.59,1.03,3.62-1.12,2.2-5.73,2.74-8.43.73-3.67,5.22-6.55,8.59-7.57,3.73,2.33,1.09,10.08-1.85,12.36-1.46,1.13-6.35,2.13-5.56,4.84.18.63,4.99,2.59,5.85,2.74,6.42,1.1,5.47-5.7,8.56-8.54,2.4-2.21,7.22-3.82,10.38-2.95.19,7.88-5.36,11.73-12.65,12.34-1.77,3.51,4.99,3.13,7.35,3.78,3.96,1.08,8.56,6.43,7.24,10.62-4.63.54-9.68-.83-12.26-4.93-.76-1.21-.8-3.03-1.59-3.98-.66-.79-7.36-3.78-7.65-3.45-1.15,3.76,2.48,5.28,3.11,8.33.83,4.03-.52,7.22-2.57,10.53-3.13,1.82-6.15-5.91-6.28-8.23-.2-3.64,4.17-7.04,2.14-11.29-.93-1.93-12.43-4.85-13.4-3.92.31,4.77,5.37,5.63,5.85,10.88.13,1.36-.69,5.84-1.27,6.97-1.93,3.8-8.64-5.07-8.48-8.96.13-3.09,3.53-5.49.46-9.39l-10.31-.81c-.67,4.07,3.21,4.8,4.5,6.95,2.07,3.43,1.65,8.9-.98,12-3.21.99-7.47-6.7-7.46-9.46,0-2.24,3.48-8.21-.45-9.37-1.64-.48-11.96,1.36-11.94,2.83,1.97,2.91,5.68,3.33,7.31,6.42,1.59,3.01,1.62,7.04.46,10.22-3.96.52-8.92-4.79-9.49-8.44-.29-1.84.65-3.2.41-4.88-.74-5.19-10.23-.16-12.14,2.24l.44,1.52c6.52,6.52,11.94,14.04,16.79,21.85,1.31,2.11,3.62,8.71,5.82,9.28,1.24.32,7.09-3.55,9.17-4.34,6.31-2.38,16.55-3.32,22.85-.93,1.95.74,4.94,3.49,6.26,3.31,12.79-6.59,30.31-14.63,43.3-4.48,7.41,5.79,8.99,14.44,15.03,20.96,4.36,4.7,11.01,8.38,15.37,13.41,14.38,16.58,7.65,34.37,15.6,52.46,1.3,2.97,3.44,5.65,4.54,8.55.89,2.33,1.82,9.83,2.41,10.68.94,1.35,3.35.39,4.64,0,4.82-1.43,10.02-4.86,14.65-6.96.6-.27,1.52.63,1.69,1.02.89,2.05-10.06,13.51-12.12,15.4-1.91,1.75-8.78,6.09-9.06,7.99-.23,1.53,4.91,11.86,6.1,13.94,7.6,13.37,17.16,22.37,33.82,17.47,10.56-3.11,3.57-22.72,18.1-18.72.51,3.4-.87,7.38,1.08,10.37,2.22,3.41,6.89,2.01,10,4.05.43,1.29.16,2.39-.51,3.54-1.62,2.77-10.04,11.05-12.81,13.36-29.19,24.43-64.78,7.41-82.98-20.98-2.05-3.2-4.54-11.08-8.45-10.87-5.45.29-1.37,4.32-1.07,7.32.11,1.04.39,1.84-.99,1.65-2.18-.29-9.51-4.57-12.59-5.73-11.79-4.45-24.19-6.07-36.78-6.06-1.06-.81.01-1.19.97-1.31,9.33-1.19,22.25.81,31.35,3.33,2.16.6,13.49,4.98,14.11,4.52-1.9-3.57-2.88-28.97-1.28-30.09,7.22,1.85,14.36,3.05,21.87,2.59,3.2-.2,16.48-1.68,17.23-5.03.3-1.33-1.25-8-1.83-9.71-1.15-3.4-3.51-6.19-4.92-9.48-6.8-15.9-2.08-30.78-11.35-46.25-5.38-8.98-13.3-12.28-19.71-19.55s-7.38-15.89-16.17-21.12-19.87-2.21-28.75,1.72c-1.21.54-6.93,3.19-7.41,3.71-1.85,2.01.54,3.54,1.17,5.39,1.06,3.1,3.25,8.52,1.12,11.31-2.28-10.71-7.5-19.86-19.59-20.32-4.83-.18-20.91,2.71-21.93,8.24-.62,3.36,3.35,11.97,4.39,15.87,6.57,24.63,7.2,48.62,1.17,73.46-1.12,4.63-4.92,13.17-5.28,16.99-.26,2.75,3.02,9.08,6.16,7.12.46-.28,3.93-7.6,5.34-9.37,9.02-11.31,16.27-11.89,22.71-27.71.4-.98-.39-1.78,1.47-1.44.16,4.73-1.84,8.65-4.05,12.63-1.06,1.91-3.61,3.81-3.05,5.88.88,3.25,10.55,7.44,13.52,8.81.93.43,1.78-.39,1.43,1.48-4.24-.38-8.09-2.22-11.71-4.31-1.39-.8-8.6-7.17-7.93-1.28.2,1.7,9.28,8.6,11.2,9.79,2.57,1.59,4.93,2.38,7.66,3.49.98.4,1.77-.39,1.44,1.47-4.04.14-8.28-2.27-11.71-4.3-3.2-1.89-7.95-6.62-10.54-7.79s-7.22,4.12-8.76,6.26c-3,4.18-5.69,15.21-12.4,8.4-1.41-1.43-1.21-3.92-3.6-3.14-10.74,23.99-30.88,46.43-56.62,54.28-46.48,14.18-87.22-18.41-103.01-60.24l-9.15,5.55c-2.16.44-4.37,1.44-6.45.24.15-10.68-4.08-19.6-13.37-24.9-4.52-2.58-8.49-2.38-10.78-8.19-.48-1.23-1.67-6.01-1.43-7.04.13-.55,1.11-1.38,1.64-.37.31,11.64,10.21,10.87,16.98,16.39,6.05,4.94,8.38,11.93,10.13,19.31,4.03,2.92,10.38-1.71,10.14-6.32-.17-3.22-3.08-10.38-3.92-14.31-5.85-27.39-4.36-49.21,3.28-75.94,1.9-6.64,6.37-10.08-1.2-14.51-6.78-3.97-14.57-4.3-21.8-1.32-4.71,1.94-7.93,6.03-12.63,7.31-.68-2.61,3.41-4.01,3.85-5.69.5-1.91-5.8-6.84-7.57-7.94-9.21-5.72-16.88-5.18-25.66.92-1.58,1.1-6.18,5.84-6.93,6.15-1.2.5-1.12-.67-.83-1.49.95-2.68,6.79-6.25,5.46-8.35-1.89-2.98-10.13-1.47-12.97-.49-6.56,2.26-26.83,18.31-31.88,23.73-6.81,7.31-15.15,20.83-16.26,30.85-.32,2.9.35,6.2-.21,8.95-3.08,14.96-18.32,30.49-14.31,48.52l-5.81,24.62c16.4-3.47,33.05-11.13,46.36-21.34,1.47-1.13,7.02-6.56,7.6-6.8,1.38-.58.89.85.82,1.47-.33,3.29-1.57,7.18-1.81,10.64-.27,3.92.27,23.19,2.87,25.26,6.99,3.15,5.75-6.13,11.5-7.62,3.27-.85,5.02,1.55,8.8.97,7.84-1.2,9.62-6.65,12.68-12.19s9.06-7.78,15.15-8.73c.21-.92-.13-1.08-.64-1.65-.82-.93-9.62-7.04-8.51-8.16l11.19,7.45c1.36,1.41,8.07,1.45,8.42,2.7.98,3.51-3.58,1.62-4.83,1.69-5.68.31-14.27,2.2-17.68,7.18-1.24,1.81-1.6,3.95-2.7,5.81-2.51,4.27-9.12,8.56-14.02,8.93-4.97.38-5.69-3.72-9.81,1.25-3.64,4.39-4.07,7.74-11.81,5.93l-2.3-7.53c-3.49,1.18-7,2.3-10.62,3.04-12.51,2.57-19.9.2-19.08,17.23,4.97-2.23,10.55-.92,15.25,1.42,4.38,2.18,11.58,12.01,14.53,2.51.89-2.86-.97-1.58-1.85-3.42-1.42-2.96.58-10.21,4.45-8.45,3.57,1.62,5.7,4.27,10.53,4.62s12.05-6.19,12.68,1.02c.69,7.84-4.72,6.73-7.88,10.46-2.19,2.58-4.07,8.28-6.24,11.42-2.42,3.5-9.64,8.9-10.67,10.92-1.09,2.16-.85,4.94-2.21,7.61-3.57,7.04-8.92,5.43-7.69-2.78l-15.69,3.28c.29,1.11,2.05.83,3.24,1.65,4.43,3.07,4.71,8.98,7.52,11.46,1.12.98,3.98,1.33,4.26,2.31-1.23,5.47-8.44,6.45-13.06,4.87-1.41,2.57,4.05,8.2,3.92,8.83-.54,2.59-9.89-.02-11.11-2.28.2,2.73-7.79,11.24-9.81,9.17l-.99-6.56c-3.2,1.76-6.45,4.61-9.95,5.75-11.79,3.82-3.95-3.83-2.48-8.38.62-1.91.79-3.24.34-5.22-9.19,2.79-18.42.97-25.5-5.57l1.03-1.61,3.54.63c1.17-4.48-3.72-9.81-3.9-13.49-.22-4.56,3.3-.02,4.72.56,5.38,2.19,7.32-1.44,11.36-3.35,6.41-3.03,10.75-2.29,17.25-.09-.12-5.3-2.65-5.09-5.57-7.84-12.89-12.14-11.61-29.29-7.5-45.17-.24-.34-6.95-1.2-8.18-1.32-1.99-.19-11.6.74-11.42-2.3.1-1.78,18.33-3.01,21.19-4.96,1.73-1.18,2.45-7.52,3-9.77-3.65-.31-7.88.42-11.44,0ZM234.03,74.53c.28-2.7-.83-5.75-3.26-7.2-.26,2.4-1.07,5.8,1.29,7.2l.65-2.61,1.31,2.61ZM343.23,74.53l.66-7.2c-2.01,1.06-2.92,3.43-3.28,5.56-.08.49-.19,2.39.67,1.31l1.31-2.28.65,2.61ZM173.23,73.88c-1.19-2.16-3.37-3.58-5.88-3.26-.79.7,3.86,6.22,5.22,4.91l-1.96-2.29,2.61.64ZM407.33,70.62l-5.88,1.97.33,1.31,2.28-.66-1.96,2.61c2.84-.32,4.11-2.99,5.23-5.22ZM196.76,77.81c.08-2.22.06-4.85-1.63-6.53-1.97,1.66-1.71,4.2-1.63,6.53l1.95-2.61,1.31,2.62ZM381.16,77.81c.09-2.35.34-4.86-1.63-6.53-1.97,1.67-1.71,4.18-1.63,6.53l1.63-2.62,1.63,2.62ZM243.85,81.08c2.61-1.39,1.91-4.75,1.95-7.2-2.13,1.19-3.47,3.17-3.92,5.56l2.62-.97-.65,2.61ZM332.77,80.43c-.06-2.58-1.7-5.28-3.91-6.55.03,2.45-.64,5.84,1.95,7.2l-.65-2.61h1.3s1.31,1.96,1.31,1.96ZM209.19,79.78c-1.03-1.28-4.05,4.74-3.26,5.89l1.95-1.96v2.62c2.24-1.01,1.06-4.41,1.31-6.54ZM366.77,79.78l-1.3.32c.24,2.02-.89,5.24,1.3,6.22l.33-2.62,1.63,2.61c.6-2.74-1.18-4.22-1.97-6.54ZM228.15,82.4l-6.53-1.31c-1.17,1.01,3.86,4.06,4.94,3.9,2.82-.19-2.13-1.23-1.01-2.6h2.6ZM353.05,81.09l-6.53,1.31h2.6s-1.95,2.6-1.95,2.6c2.6.17,4.59-1.91,5.88-3.91ZM176.49,85.02c-2.56-.26-5.27.06-6.54,2.6h6.53s-1.96-1.95-1.96-1.95l1.96-.65ZM404.71,87.62c-1.27-2.55-3.98-2.86-6.54-2.6l1.31.98-1.31,1.62h6.53ZM255.62,85.67c-.8-.84-6.13,3.58-5.22,4.58l1.63-1.3.35,1.63c1.66,1.42,3.74-4.39,3.25-4.91ZM324.27,90.25c.91-1-4.44-5.42-5.22-4.58l2.59,5.58,1-2.3,1.63,1.3ZM218.99,98.76l1.31-7.2c-2.28,1.45-4.3,3.66-3.91,6.54l1.95-1.96-.65,2.61h1.3ZM358.28,98.1c1-1.51-2.96-6.99-3.91-5.89l1.31,6.54.65-2.61,1.95,1.96ZM187.61,92.87c-1.16-.19-2.03.12-3.08.51-.68.25-3.28,1.5-2.8,2.75l6.53-.66-1.96-.65,1.31-1.95ZM392.94,96.13c-1.2-2.16-3.36-3.58-5.88-3.26l1.31,1.95-1.96.65,6.53.66ZM237.31,98.75c-1.41-2.31-4.88-1.96-7.19-1.95-1.24,1.05,4.53,4.38,5.88,3.26l-1.96-1.95,3.27.64ZM344.55,96.8c-.52-.44-6.82.04-7.19,1.95l2.61-.65-1.3,1.96c1.16.83,7.2-2.14,5.88-3.26ZM199.38,104l-7.19.97c1.86,2.14,4.63,1.66,7.19,1.63l-2.61-1.95,2.61-.65ZM382.48,104.66l-7.19-.66c-.13,1.54,3.2-.36,2.62,1.62-.28.96-2.74-.47-2.62.98,2.44-.04,5.77.67,7.19-1.95ZM187.61,113.81c1.08-1.17-4.74-5.17-5.87-5.24-.54.65,2.08,6.1,3.91,5.89l-.32-2.61,2.29,1.96ZM392.94,109.24c-.93-.75-6.7,2.36-5.88,4.58l2.61-1.3-.33,1.95,3.6-5.23ZM172.34,111.43c-.7-.66-3.31-2.73-3.03-.58.23,1.84,1.46,4.77,3.26,5.58l-.64-2.61,1.95-.32c-.67-.53-.97-1.53-1.54-2.07ZM405.36,109.89c-.65-.66-4.4,2.5-4.56,3.61l1.95.32-.64,2.61c2.42-1.16,2.76-4.18,3.26-6.54ZM279.02,111.39c-44.55,4.29-72.9,52.65-78.25,93.18-6.44,48.84,15.36,113.55,67.27,128.22,57.79,16.33,100.25-39.33,106.51-91.07,7.1-58.79-26.09-137.01-95.53-130.33ZM159.49,120.35c-.92-2.12-3.36-2.42-5.23-3.27-.69.81,3.5,6.99,5.22,5.57l-1.96-1.97,1.96-.33ZM415.17,122.97c.92.88,6.12-4.92,5.22-5.88l-5.87,2.63v1.3s2.61-.65,2.61-.65l-1.96,2.61ZM200.04,134.11l-.65-3.27-.66,7.2c2.47-1.36,3.65-3.76,3.26-6.54l-1.95,2.62ZM375.94,138.03c.23-.3.39-6.91-1.3-7.19v3.27s-1.32-2.61-1.32-2.61c-1.09-.2-.75,1.67-.62,2.25.15.64,2.24,5.6,3.24,4.29ZM186.31,134.76v-2.62c-2.35,1.19-.99,4.93-1.31,7.2,2.41-1.43,3.54-4.5,3.26-7.2l-1.95,2.62ZM213.77,134.76l-.57-1.54-1.39,5.47c.85.95,5.51-4.2,4.57-5.89l-2.61,1.96ZM362.86,138.69l-1.63-5.89-.66,1.97-2.28-1.97c-.95,1.68,3.73,6.84,4.57,5.89ZM389.66,139.34c-.21-2.1.81-5.85-1.29-7.2v2.62s-1.96-1.96-1.96-1.96c-.44,2.68.85,5.29,3.26,6.54ZM157.53,133.46c-2.53.16-4.34,2.41-5.23,4.57,2.13.3,3.19-.19,4.9-1.3,2.98-1.94-1.95-.28-1.63-1.95l1.96-1.32ZM422.37,138.03c-.89-2.16-2.7-4.4-5.23-4.57l1.3,1.64-1.14.48c-1.64-.53-.29.85.17,1.15,1.71,1.11,2.77,1.6,4.9,1.3ZM402.1,139.35l-.65-2.62c-.07,2.43-.21,5.3,1.63,7.18,1.07,0,2.93-6.75.33-7.19l-1.31,2.62ZM171.26,137.38c-3.17-.47-.44,7.37.65,6.55l1.31-6.54-1.63,1.96-.33-1.97ZM460.95,271.25c-.59,1.92,0,11.47,0,14.4,0,1.58,2.07,2.37,3.56,2.32,15.15-.51,34.06-11.36,44.18-22.28-12.73,3.92-25.43,6.73-38.9,5.87-1.85-.12-8.15-2.53-8.84-.32ZM52.26,294.48c2.12-.1,4.04.64,6.17.69,8.73.21,37.63-1.38,44.63-5.13,4.61-2.47,2.52-9.5,2.82-14.2.19-3.04,1.4-6.38,1.29-9.5-3.94,2.67-7.02,6.28-10.9,9.04-7.9,5.64-17.26,9.39-26.2,13.05l-17.81,6.05ZM55.52,272.89l-9.15,4.57c4.68,1.2,10.28,2.05,9.15-4.57ZM505.33,299.65c.39-1.08-.09-2.03-.43-3.01-.6-1.76-5.1-10.94-6.1-12.22-.51-.66-.65-.95-1.59-1.09-1.4-.21-9.56,4.22-11.9,5.12s-12.24,3.33-12.95,4.73c-1.28,2.53,4.48,10.44,6.25,12.76,20.23,26.48,65.94,34.11,87.61,5.24.41-1.83-4.24-1.79-5.83-2.66-4.05-2.23-5.13-7.81-4.63-12.06-1.48-.08-3.03.33-3.77,1.78-.3.58-2.7,8.56-2.7,9.03.03,2.42,4.49,4.76,3.2,8.17-1.35-.47-1.07-2.85-2.6-3.61-1.12-.55-2.73-.64-3.2.76l1.23,8.08c-2.38.1-.84-3.17-2.89-4.62-1.04-.74-2.73-.92-3.88-.52-1.94.66-.37,6.18-3.02,7.12.04-3.11.56-6.66-3.56-6.51-4.4.16-1.71,5.52-4.94,7.16.93-3.36,1.32-7.91-3.57-7.22-2.16.3-3.9,5.5-6.89,5.91-.64-.71,3.96-4.5,2.31-7.2-2.66-4.36-6.89,3.07-10.16,1.96,2.29-2.5,5.56-3.93,2.62-7.52-3.53-4.31-6.53,3.29-9.81-.97,2.91.2,7.07-3.23,4.25-5.92-1.96-1.87-6.58,2.53-8.82-.31l5.8-2.37ZM75.05,301.78c-4.92.99-19.55-2.45-23.07-.03-2.73,1.87-3.82,19.79-2.31,23.5.71.5,5.63-2.22,6.51.66-2.82-.44-6.02,1.88-5.71,4.82.47,4.52,4.8.05,7.67,1.08-.73,1.36-3,1.31-3.96,2.89-.86,1.43-1,2.65,0,4.01,2.05,2.81,3.48-2.46,5.92-2.33-2.43,2.93-3.11,6.08.33,8.49,1.27.03,1.51-8.55,1.8-9.96,1.83-8.86,4.78-9.66,8.18-16.03,2.07-3.88,2.39-10.47,5.11-14.55l-.47-2.56ZM128.76,313.48c-5.23,1.94-8.18,2.32-13.58.84-2.86-.79-8.94-5.15-8.02.14.4,2.29,3.57.96,2.34,5.59-2.08,7.88-13.99,13.71-21.6,13.78-2.85.03-11.35-2.68-12.77-1.72-1.61,1.09-2.55,15.3-1.6,17.37.22.49.93.86,1.3,1.31,1.09,0,1.67-6.39,4.25-5.87-3.25,6-.91,7.24,5.23,6.54.27-.28-.57-6.61,1.95-7.2-.21,3.22-.46,7.62,3.95,6.27,3.88-1.19-.35-4.73,1.3-7.58,1.35.75,1.15,4.03,2.6,4.91,1.54.94,3.63,0,5.24-.34l-1.95-6.54c4.7,7.96,11.47,1.23,15.67-3.62,3.98-4.6,5.54-10.88,8.82-14.73,3.09-3.63,8.34-3.03,6.88-9.14ZM97.37,326.56c-.84-5.12-9.32-9.02-14.06-9.02-17.86,0-21.17,22.49-19.32,36.22.43,3.17,2.99,3.74,5.91,3.57.27,2.2-3.21,2.47-3.96,3.72-2.23,3.73,3.27,18.59,2.66,23.77l2.94-5.23-.32,5.89c3.49-2.55,4.85-6.97,5.23-11.13,2.65-.5.7,3.28.99,4.67.18.88,2.08,3.21,2.93,2.53l-1.3-3.27,2.6,1.96c-2.12-5.35-.4-10.91-2.42-16.22-1.6-4.22-5.14-5.75-6.98-9.37-3.18-6.26-2.27-14.36-.85-21.01,1.93-9.06,7.13-14.29,16.8-10.66,3.64,1.37,5.35,5.08,9.17,3.58ZM89.52,327.87c.29-3.38-9.8-4.24-9.79-2.29,2.43,2.98,6.45,2.25,9.79,2.29ZM100.65,354.72c1.71-.21,3.82-5.83,3.26-6.55l-3.85,2.4.6,4.14ZM58.13,353.41c-9.41-2.03-14.6,4.75-22.88,6.55-.4.51,3.39,3.63,4.57,3.27-.7,2.16-4.68-1.24-5.22-.66l1.34,5.87c2.18,1.55,11.54-8.64,13.76-10.07l8.44-4.96ZM54.39,362.76c1.16-.91,2.92-.57,4.45-1.77,1.05-.83,1.64-2.82,2.9-3.66.98-2.3-4.7-.9-5.76-.51-7.52,2.78-11.23,11.73-18.77,14.27l7.18,1.29c-1.79.93-4.9-.08-5.88,1.97,3.36.62,11.51,1.66,14.09-.61,2.25-1.97-1.72-8.23,1.78-10.98ZM90.83,371.08l-6.18-11.16c-1.69-1.58-3.87-2.79-6.24-2.58,3.87,4.14,4.45,8.78,5.17,14.13l3.33.91-1.96-3.26,5.88,1.95ZM57.48,385.48c13.5-3.87,5.59-12.31,5.21-20.64-.11-2.5.82-3.38,1.32-5.54-5.52,3.45-5.89,8.79-1.96,13.74-1.48,1.44-5.71-7.52-4.58-9.16-4.8,1.52-.73,10.27-.9,14.62-.09,2.34-1.19,4.17-1.71,6.32l4.56-3.93-1.95,4.58Z"/>
  <path class="st0" d="M281.78,84.03c0-.15.58-.55.35-.99-.45-1.18-7.81-2.51-9.84-3.25-8.75-3.22-15.16-9.46-15.22-19.33-.06-10.71,2.8-15.66-1.78-27.15-.82-2.06-6.43-10.26-5.54-11.14,9.8.5,18.45,11.33,19.54,20.69.95,8.14-1.78,15.52.52,23.7,1.78,6.32,5.82,9.9,11.66,12.54,1.8-.1,1.47-12.27,1.64-14.05.7-7.39,3.47-18.77,3.32-25.53-.07-3.15-2.31-6.79-3.13-10.02-1.95-7.66-1.9-12.79.14-20.42,2.44-9.1,5.19-13.99,9.01-1.83,2.64,8.42,2.39,16.69-.16,25.08-.56,1.86-2.52,4.32-2.62,5.9-.28,4.63,2.14,14.21,2.58,19.61.5,6-.01,13.01.63,19.01.1.97.05,1.65,1,2.23,5.51-2.01,9.6-5.82,11.48-11.4,3.8-11.27-2.59-21.61,3.78-33.53,2.57-4.81,10.41-12.23,16.13-12.01.92.03,1.22-.17,1,1.01-.18.96-4.81,7.52-5.8,9.9s-1.91,4.94-2.42,7.4c-2.59,12.72,5.05,23.95-5.84,34.09-5.63,5.25-11.73,5.84-18.74,8.13l-.42.77c.45,2.71,1.38,13.3-.41,14.72-1.16,1.22-10.85.49-10.85-.06-.1-4.68.14-9.39,0-14.07ZM287.66,31.99V6.46c-.95-.15-.89,1.13-1.11,1.82-1.98,6.08-2.2,14.25-.53,20.44.23.85.62,3.15,1.64,3.27ZM288.97,7.11v24.88c1.06-.54,1.42-3.4,1.66-4.56.82-3.91,1.33-7.96.77-11.95l-2.43-8.36ZM270.66,74.53c-10.63-13.5,3.01-32.32-11.11-44.51,1.13,2.83,2.89,5.4,3.73,8.37,3.15,11.13-2.5,20.35,2.54,30.84.41.85,3.77,6.3,4.84,5.3ZM306.63,72.57c3.19-2.28,4.65-7.85,5.04-11.63.56-5.39-1.33-9.78-1.12-14.86s2.71-9.96,4.57-14.75c-2.98,2.25-4.94,6.76-5.71,10.31-1.79,8.16,1.23,15.65-.46,23.76-.52,2.51-1.62,4.74-2.32,7.16ZM266.08,72.57c-6.89-8.94-2.46-20.02-3.44-30.26l-4.4-10.31c.6,3.85,2.25,7.55,2.6,11.46.81,9.03-3.35,20.5,3.01,27.76.65.74,1,1.63,2.24,1.36ZM308.59,73.88c3.94-2.66,6.73-7.53,7.04-12.32.19-2.97-1-5.56-1.15-8.31-.4-7.31.71-13.62,2.6-20.61-8.81,9.87-1.43,22.9-5.19,34.4-.82,2.49-2.54,4.42-3.3,6.84ZM290.28,91.56c.33-12.55-.73-25.06-1.39-37.56l-1.22-4.99-2.63,42.55h5.24Z"/>
  <path class="st0" d="M531.58,199.57l4.99-5.84c1.34-.24,4,3.81,4.17,5.18,2.44-.27,3.21-3.27,5.69-3.8,1.05-.22,3.05-.42,3.37.91.22.93-1.76,9.54-1.87,11.74-.46,9.34,5.13,19.42,1.62,28.46-1.21,3.12-4.32,4.46-4.3,8.19,0,2.71,2.24,6.11,2.61,9.23.83,7.13-.88,13.9-5.01,19.72-1.25,1.76-7.14,8.57-9.21,5.31-1.85-2.92,5.03-11.7,6.13-15.6,1.17-4.13,1.04-7.27-.49-11.32-3.07-8.15-6.63-4.16-12.28-6.69-8.56-3.83-9.61-19.99-12.76-27.81-.92-2.29-7.07-12.33-6.85-13.41.53-2.69,8.29.42,9.8,1.62.73-10.88,2.59-13.18,9.81-3.93-1-8.42,2.12-11.31,4.59-1.97ZM536.15,203.49l-.33-3.92c-3.57,1.46-.11,12.34,1.63,10.47-.07-3.53,2.71-7.16.33-10.47l-1.63,3.92ZM522.42,206.11l-1.96-5.23c-2.19,6.91,1.85,10.11,5.87,15.05-.03-4.89.98-9.41-2.94-13.09l-.97,3.27ZM543.35,204.15l.32-3.27c-6.96,9.06-5.16,22.74-3.6,33.38-1.43.22-1.6-.55-1.92-1.67-1.61-5.49-.39-12.72-1.48-17.5-.58-2.54-5.02-5.71-5.1-8.97l-.32,5.24-1.63-5.24c.57,4.52-1.72,9.03-1.6,13.42.1,3.82,2.35,8.94,2.97,13.07.15.99.92,1.45-.4,2.31-3.1-10.35-6.38-23.58-17.33-28.14l1.3,1.95-1.31.32c8.33,10.25,5.8,43.35,27.06,32.34,12.69-6.57,4.64-20.66,4.4-30.43-.06-2.51,1.22-5.93.58-8.76l-1.95,1.96ZM537.46,274.85c7.97-7.57,11.08-21.24,3.58-30.11-.83-.07-1.55.42-1.35,1.33.49,2.17,3.01,5.29,3.49,8.32.73,4.64-.09,9.18-1.98,13.41-1.06,2.36-3.29,4.44-3.74,7.05Z"/>
  <path class="st0" d="M297.65,382.03c-2.38-2.36-2.53-17.34.77-19.48,2.33-1.51,12.81-3.24,16.55-4.38,11.94-3.64,23.65-8.99,34.36-15.36,2.91-1.73,14.44-10.27,16.38-10.16,4.5.27,10.3,8.75,12.31,12.46,1.91,3.54,6.02,11.86,2.47,15.13-2.04,1.88-14.55,6.37-17.94,7.57-14.96,5.3-31.84,9.59-47.41,12.76-3.27.67-11.44,2.93-14.1,2.85-.75-.02-2.88-.9-3.38-1.4ZM299.43,365.52v10.47c0,2.58,6.44,1.04,7.98.79,11.69-1.92,25.65-5.84,36.99-9.45,8.26-2.63,23.12-7.4,30.27-11.59,7.5-4.39-5.62-20.44-9.5-20.03-1.15.12-16.44,10.86-19.53,12.57-8.84,4.89-19.21,9.34-28.87,12.34-2.45.76-17.06,4.04-17.34,4.9Z"/>
  <path class="st0" d="M168.65,331.81c.94-.14,1.7.02,2.58.35,3.02,1.14,9.71,6.3,13.32,8.27,22.69,12.31,47.51,20.88,73.36,23.45,3.84.38,15.97,0,18.47,1.15,2.93,1.34,2.5,11.15,2.13,14.26-.32,2.69-2,4.91-4.9,4.91-27.62-.02-65.42-16.6-86.96-33.43-3.65-2.85-15.41-12.6-17.39-15.98-.61-1.04-.8-1.76-.62-2.98ZM275.24,377.96v-9.82c-3.39-1.98-8.7-.7-12.78-.95-17.94-1.14-38.02-6.11-54.75-12.62-8.23-3.2-15.92-7.53-24.02-10.97,13.45,13.83,32.86,22.14,51.16,27.66,12.59,3.8,26.21,6.84,39.31,7.57l1.08-.88Z"/>
  <path class="st0" d="M386.45,359.9c-1.73-12.43-4.25-21.98-15.72-28.45-1.3-.73-4.79-1.17-4.61-2.56.6-4.61,4.96-4.73,8.54-4,1.24.25,2.88,1.51,3.67,1.55,1.05.06,2.01-1.41,3.29-1.71,4.96-1.19,7.14,2.59,11.3,3.8-.44-3.53-5.93-6.59-2.62-10.15,5.87-3.54,22.45,12.93,15.4,20.66-1.19,1.3-2.8,1.57-3.97,2.58-6.02,5.18-3.08,19.36-15.3,18.29ZM370.71,328.52c8.27,3.1,13.39,10.18,16.03,18.33.96,2.98,1.58,13.72,6.22,7.55,2.04-2.72,2.19-8.63,4.67-12.34,2.05-3.06,6.8-4.46,7.08-7.38.41-4.36-7.37-12.82-11.45-14-.88-.26-1.22.08-.96.96.56,1.88,7.02,7.63,2.61,9.84-4.14,2.08-8.63-5.47-13.08-4.26-1.43,1.43,4.45,6.94,5.5,8.56.93,1.43,1.56,3.02,2.35,4.52-1.29.3-1.55-.66-2.23-1.36-3.73-3.87-6.21-7.69-11.31-10.28-1.08-.55-5.62-3.21-5.43-.14Z"/>
  <path class="st0" d="M282.76,343.59h9.81c2.34,3.2.45,8.53.33,12.12-.46,14.12-.93,29.11-3.47,43.01-.24,1.3-.9,6.86-2.74,6.41-1.63-1.89-1.85-5.12-2.21-7.61-.99-6.75-1.61-14.06-2.04-20.87-.53-8.36-1.62-22.93-.69-30.79.11-.95.08-1.68,1.01-2.26ZM287.65,392.03c1.24-14.7,3.03-29.39,2.62-44.19-.45-2.37-4.84-2.86-5.26.62-1.18,9.66.01,31.89,1.5,41.77.09.57.29,1.97,1.14,1.79Z"/>
  <path class="st0" d="M455.06,282.38c.25,3.27,1.4,6.59,2.07,9.73.11.52.92,1.53-.45,1.73-.72.1-11.01-4.84-13.39-5.56-4.36-1.32-9.19-2.28-13.73-2.3.34-1.36.97-1.04,1.95-1.03,7.63.12,14.99,3.08,22.25,4.96v-16.03s1.31-6.88,1.31-6.88c.28,5.02-.38,10.41,0,15.38Z"/>
  <path class="st0" d="M113.07,291.87c4.59-4.69,12.11-6.62,17.65-2.29-1.41.48-2.49-.79-4.23-1-6.33-.77-9.99,1.53-12.45,7.21-.79.2-1.51-.76-1.93-1.33-3.51-4.86-.18-21.39.63-27.48l.33,24.88Z"/>
  <path class="st0" d="M99.99,180.59l-10.08,11.18-8.22,14.35c.89-8.19,5.73-15.88,11.76-21.28,1.7-1.52,4.35-3.54,6.55-4.24Z"/>
  <path class="st0" d="M197.41,266.34l-13.06-14.73-9.82-6.86c10.41,2.42,19.75,11.51,22.88,21.59Z"/>
  <path class="st0" d="M481.22,227.06c-.83,1.11-1.19-.08-1.3-.98-1.32-10.46-2.48-19.08-8.51-28.15,1.02-.23,2.35,1.63,2.89,2.34,2.48,3.26,6.92,13.43,6.92,17.29v9.49Z"/>
  <path class="st0" d="M73.17,232.31c.46.54-5.49,11.05-5.56,13.08l-2.93,16.37c-2.27-9.44,1.11-20.52,6.81-28.21.25-.33.7-2.4,1.68-1.24Z"/>
  <path class="st0" d="M202.65,172.72c-.46.44-5.12-3.34-6.29-3.85-3.31-1.43-7.09-1.89-10.62-.96l-8.59,3.18c6.89-7.63,20.26-7.65,25.5,1.63Z"/>
  <path class="st0" d="M165.37,163.57c-7.14-6.79-16.59-6.97-24.52-1.31-1.08-1.19,3.11-3.61,4.32-4.19,6.48-3.11,14.17-2.47,18.9,3.21.61.74,1.59,1.06,1.3,2.29Z"/>
  <path class="st0" d="M448.52,174.04c-3.4-3.07-4.82-6.16-9.44-7.89-5.61-2.09-9.15-.84-14.74-.29,8.8-5.85,21.06-1.91,24.19,8.18Z"/>
  <path class="st0" d="M120.26,209.38c-3.57.85-6.56,3.11-8.79,5.94-1.15,1.47-1.33,4.55-3.63,4.54-1.35-4.55,6.99-12.54,10.83-12.42,1.1.04,1.78.83,1.59,1.94Z"/>
  <path class="st0" d="M173.88,264.37c-7.41.31-15.74-4.83-17-12.43l7.24,7.47,9.75,4.96Z"/>
  <path class="st0" d="M118.22,221.74c-7.47,1.15-2.51-11.22.79-6.84,1.59,2.11.06,4.75-.79,6.84Z"/>
  <path class="st0" d="M446.64,221.08c-.59-2.06-2.09-4.04-.68-6.06,3.18-4.55,8.4,7.79.68,6.06Z"/>
  <path class="st0" d="M450.48,208.74c1.02.87-5.67,4.1-6.48,4.96-1.24,1.3-1.44,3.46-3.31,4.2-.72-5.21,5.04-9.18,9.8-9.16Z"/>
  <path class="st0" d="M408.63,217.9l-.64-2.93,1.95-12.12c1.18,5.03-.01,10.13-1.31,15.05Z"/>
  <path class="st0" d="M165.38,212.01c-1.47-.38-1.25-1.76-1.34-2.91-.33-4.06.31-8.13.7-12.14,2.3.74.65,3.61.65,4.25v10.8Z"/>
  <g>
    <path class="st0" d="M290.8,127.98c.05-.18.05-.3-.19-.31l-2.89-.11v-.37c1.07-.83,2.54-2.22,2.58-3.46.03-.7-.45-1.02-.89-1.03-.47-.02-.83.29-.84.66,0,.21.08.4.16.55.03.07.02.07-.18.13l-.29.09c-.08.03-.16.05-.17.05-.08,0-.24-.32-.23-.69.02-.67.62-1.21,1.83-1.17,1.57.06,1.77,1.07,1.76,1.45-.03.83-.85,1.56-1.57,2.16-.19.15-1.06.82-1.24.96l2.75.1-.23.98h-.37Z"/>
    <path class="st0" d="M292.36,125.33c.17-1.42.52-1.81.8-2.09.3-.3.76-.6,1.5-.51.71.08,1.11.46,1.34.85.2.32.45.83.3,2.12-.14,1.15-.45,1.64-.89,2.01-.5.4-1.02.45-1.38.41-.81-.1-1.91-.76-1.67-2.78ZM294.61,123.1c-.77-.09-.9.75-1.07,2.22-.17,1.41-.24,2.32.53,2.41.84.1.93-1.01,1.07-2.22.13-1.08.35-2.31-.53-2.41Z"/>
    <path class="st0" d="M300.78,124.62s-.03-.09-.04-.1c-.16-.44-.28-.54-.64-.65l.09-.35,2.68.71-.09.35c-.31-.08-.59-.16-.65.07-.03.1,0,.21.14.64l.53,1.59,1.17-.98c.24-.2.39-.34.43-.5.1-.36-.27-.46-.56-.53l.09-.35,2.09.55-.09.35c-.48-.1-.66.03-1.4.65l-1.65,1.36-.32,1.22c-.09.35-.13.62.67.83l-.09.35-2.88-.77.09-.35c.75.2.89.03,1-.39l.31-1.15-.86-2.54Z"/>
    <path class="st0" d="M309.89,132.26l-4.93-1.92.13-.34c.73.29.88.11,1.03-.27l1.22-3.13c.14-.36.19-.6-.57-.9l.13-.34,4.58,1.78-.43,1.32-.38-.15c.09-.98-.26-1.12-.93-1.38l-1.04-.4-.68,1.76.56.22c.56.22.71.17.95-.35l.39.15-.64,1.65-.38-.15c.18-.56.06-.7-.48-.9l-.57-.22-.46,1.17c-.25.65-.32.83.47,1.14l.44.17c.34.13,1.18.46,1.86-.7l.38.15-.68,1.62Z"/>
    <path class="st0" d="M312.2,132.11c-.12.1-.25.21-.3.31-.17.32.26.54.44.64l-.17.32-1.82-.94.17-.32c.41.21.71.17,1.44-.44l3.37-2.79.37.19-.3,4.53c-.05.74-.07,1,.46,1.27l-.17.32-2.48-1.28.17-.32c.33.17.61.31.72.08.02-.04.05-.13.06-.24l.04-.69-1.71-.88-.29.24ZM312.82,131.6l1.42.73.13-2.03-1.55,1.3Z"/>
    <path class="st0" d="M318.29,135.71c-.22.33-.29.56.38,1l-.2.3-2.48-1.64.2-.3c.64.42.83.29,1.06-.06l1.86-2.81c.22-.34.29-.56-.36-.99l.2-.31,1.17.72c.19.12.59.36,1,.65.42.29.86.62,1.12.9.44.46.77,1.18.33,1.85-.29.44-.86.69-1.79.35.25.45.26.8.3,1.8.04.95.11,1.15.46,1.42l-.2.3-1.32-.87c-.06-.33-.06-.8-.07-1.26v-.72c-.02-.9-.03-.95-.68-1.38l-.19-.12-.77,1.16ZM319.3,134.18l.23.15c.46.31,1.31.85,1.91-.06.6-.9-.33-1.5-.96-1.89l-1.18,1.79Z"/>
    <path class="st0" d="M322.95,137.78l.32.25c-.25.59-.52,1.62.35,2.31.48.38.99.34,1.25.01.32-.4.09-.84-.39-1.72-.78-1.43-.56-2.06-.27-2.42.43-.54,1.43-.77,2.34-.05.44.35.69.88.73,1.39.1-.05.22-.13.4-.28l.32.26-.93,1.17-.32-.26c.09-.26.42-1.22-.43-1.9-.41-.33-.85-.33-1.1-.02-.31.39-.05.86.38,1.65.51.93.98,1.83.4,2.56-.38.47-1.47.91-2.52.08-.46-.37-.86-.96-.89-1.65-.09.04-.27.12-.48.31l-.31-.25,1.14-1.43Z"/>
    <path class="st0" d="M333.66,142.58c1.88,1.91,1.05,3.65.36,4.32-1.01.99-2.77,1.12-4.29-.43-1.65-1.68-1.24-3.43-.34-4.31.99-.97,2.72-1.16,4.27.41ZM330.07,146.16c1.27,1.3,2.58.11,2.97-.27.78-.76,1.38-1.85.31-2.95-1.14-1.16-2.23-.47-2.96.24-.42.41-1.62,1.66-.32,2.98Z"/>
    <path class="st0" d="M334.65,150.3c-.26.22-.47.42.04,1.03l.08.1-.28.23-1.95-2.34.28-.23c.49.59.71.51,1.03.25l2.58-2.15c.3-.25.45-.44-.06-1.06l.28-.23,3.11,3.73-1.04.92-.26-.32c.58-.79.29-1.14-.12-1.63l-.68-.81-1.45,1.21.36.43c.32.39.49.45.96.11l.26.31-1.36,1.14-.26-.32c.41-.39.42-.55.07-.98l-.34-.41-1.22,1.02Z"/>
    <path class="st0" d="M339.45,156.55c-.34.24-.47.43-.02,1.08l-.3.21-1.7-2.45.3-.21c.44.64.67.57,1,.34l2.77-1.92c.32-.22.49-.4.03-1.06l.31-.21,1,1.37c.22.3.45.62.65.93.17.26,1.41,2.02.18,2.88-1.19.82-2.28-.6-2.85-1.43l-.22-.32-1.15.79ZM340.95,155.51l.23.33c.36.52.87,1.15,1.72.57.9-.63.29-1.49-.18-2.12l-1.76,1.22Z"/>
    <path class="st0" d="M343.49,164.73l-2.74-4.52.31-.19c.41.67.63.62.98.41l2.87-1.74c.33-.2.51-.36.09-1.06l.31-.19,2.55,4.21-1.15.79-.21-.35c.67-.72.48-1.05.1-1.67l-.58-.95-1.62.98.31.51c.31.51.46.57.97.3l.22.36-1.52.92-.21-.34c.49-.34.47-.52.17-1.01l-.32-.52-1.08.65c-.59.36-.76.46-.32,1.19l.25.41c.19.31.65,1.08,1.9.58l.21.35-1.53.87Z"/>
    <path class="st0" d="M348.97,164.53c-.25-.48-.57-1.07-1.55-.61l-.19-.36,1.34-.71,2.74,5.19-1.34.71-.19-.36c.9-.61.6-1.18.42-1.51l-.35-.67-3.46,1.83c-.35.18-.53.34-.15,1.06l-.32.17-1.39-2.63.32-.17c.36.69.59.66.96.47l3.46-1.83-.29-.56Z"/>
    <path class="st0" d="M349.03,175.83l-2.2-4.81.33-.15c.33.72.56.69.93.52l3.05-1.4c.35-.16.55-.3.21-1.05l.33-.15,2.05,4.47-1.23.65-.17-.37c.75-.64.59-.99.29-1.64l-.46-1.01-1.72.79.25.55c.25.55.39.62.93.41l.18.38-1.61.74-.17-.37c.52-.28.53-.46.29-.98l-.25-.55-1.14.52c-.63.29-.81.37-.45,1.14l.2.43c.15.33.53,1.15,1.82.79l.17.37-1.62.69Z"/>
    <path class="st0" d="M351.01,178.07c-.37.14-.56.29-.27,1.04l-.34.13-1.09-2.77.34-.13c.28.72.51.72.9.56l3.14-1.24c.37-.15.56-.29.27-1.02l.35-.14.54,1.26c.08.21.28.63.44,1.11.17.48.34,1,.4,1.38.09.63-.05,1.41-.79,1.7-.49.19-1.1.07-1.67-.74-.06.51-.25.8-.79,1.65-.51.8-.57,1-.44,1.42l-.34.13-.58-1.48c.14-.31.4-.69.66-1.07l.41-.59c.51-.74.53-.79.24-1.52l-.08-.21-1.3.51ZM352.71,177.4l.1.26c.2.52.58,1.45,1.59,1.05,1.01-.4.59-1.42.3-2.09l-2,.79Z"/>
    <path class="st0" d="M353.67,182.39l.13.38c-.53.36-1.31,1.08-.96,2.13.2.58.65.82,1.05.69.48-.16.53-.66.6-1.66.12-1.62.64-2.03,1.08-2.18.65-.22,1.63.12,2,1.23.18.53.11,1.12-.13,1.57.11.01.25.01.49-.01l.13.39-1.41.48-.13-.39c.22-.17,1.02-.8.66-1.83-.17-.5-.54-.74-.91-.61-.47.16-.5.7-.57,1.59-.08,1.06-.16,2.07-1.05,2.37-.57.19-1.73-.03-2.16-1.29-.19-.56-.2-1.28.14-1.87-.1-.01-.29-.04-.57,0l-.13-.38,1.73-.59Z"/>
    <path class="st0" d="M354.97,189.42c-.36.1-.59.21-.37.99l-.35.1-.8-2.83.35-.1c.21.73.45.74.83.63l3.23-.91c.37-.1.59-.22.38-.97l.35-.1.8,2.83-.35.1c-.21-.75-.46-.76-.84-.65l-1.27.36.75,2.65,1.27-.36c.36-.1.59-.21.38-.97l.35-.1.79,2.81-.35.1c-.21-.75-.47-.73-.83-.63l-3.23.91c-.34.1-.6.21-.38.97l-.35.1-.79-2.81.35-.1c.21.73.45.74.83.63l1.54-.44-.75-2.65-1.54.44Z"/>
    <path class="st0" d="M356.86,195.95c-.16-.03-.32-.06-.44-.03-.35.08-.25.54-.21.74l-.35.08-.45-2,.35-.08c.1.46.33.65,1.26.82l4.31.79.09.4-3.67,2.67c-.6.44-.81.59-.68,1.17l-.35.08-.61-2.73.35-.08c.08.36.15.67.4.61.05-.01.13-.04.22-.11l.55-.41-.42-1.88-.37-.06ZM357.64,196.09l.35,1.56,1.64-1.2-1.99-.36Z"/>
    <path class="st0" d="M361.33,201.62l-3.14.5c-.54.09-.79.13-.65.98l-.36.06-.34-2.17.36-.06c.13.83.38.8.92.72l2.99-.48c.56-.09.78-.12.65-.96l.36-.06.34,2.14-3.41,2.54,4.03,1.35.33,2.1-.36.06c-.12-.78-.35-.82-.76-.76l-3.32.53c-.38.06-.61.16-.49.96l-.36.06-.47-2.94.36-.06c.12.77.36.81.76.74l3.31-.53-4.64-1.53-.04-.27,3.93-2.92Z"/>
    <path class="st0" d="M359.67,213.18c-.56.04-.8.07-.73.94l-.36.03-.16-2.2.36-.02c.06.84.32.81.86.78l2.72-.19c.71-.05,1-.09,1.03-.9l.36-.03.12,1.73-3.35,3.62,2.43-.17c.52-.04.79-.08.73-.9l.36-.02.16,2.21-.36.02c-.06-.87-.28-.86-.85-.82l-4.23.29-.03-.4,3.87-4.16-2.94.2Z"/>
    <path class="st0" d="M364.22,218.71l.02,2.99h-.36c0-.79-.22-.86-.64-.86l-2.23.02c-.49,0-.8.05-1.05.16-.43.2-.7.73-.69,1.3,0,.61.31,1.2.74,1.4.38.18.75.19,1.17.19h1.92c.56-.02.79-.03.78-.9h.36s.02,2.18.02,2.18h-.36c0-.82-.27-.82-.8-.82h-1.97c-.61.02-.96.02-1.37-.24-.84-.5-.96-1.59-.96-2.07,0-.71.21-1.8.98-2.21.45-.25.78-.25,1.22-.25l2.23-.03c.4,0,.63-.07.62-.86h.36Z"/>
    <path class="st0" d="M359.8,227.84c-.4-.02-.63.03-.67.84l-.36-.02.15-2.97.36.02c-.04.77.17.86.59.88l3.37.17c.4.02.63-.03.67-.82l.37.02-.03,1.37c-.01.22-.01.69-.05,1.19-.04.51-.1,1.05-.21,1.42-.18.61-.63,1.26-1.43,1.22-.52-.03-1.03-.39-1.22-1.36-.26.44-.56.63-1.4,1.18-.79.52-.93.68-.99,1.12l-.36-.02.08-1.58c.25-.22.65-.46,1.05-.7l.62-.37c.77-.46.81-.5.85-1.28v-.22s-1.38-.07-1.38-.07ZM361.63,227.93v.28c-.04.55-.08,1.56,1,1.61,1.08.05,1.12-1.05,1.14-1.78l-2.14-.11Z"/>
    <path class="st0" d="M360.43,232.9l-.04.4c-.63.11-1.64.44-1.75,1.55-.06.61.25,1.02.67,1.06.51.05.75-.38,1.23-1.26.77-1.43,1.42-1.59,1.89-1.54.68.07,1.43.78,1.32,1.94-.06.56-.37,1.06-.77,1.37.09.05.22.11.45.19l-.04.41-1.49-.15.04-.41c.27-.06,1.26-.31,1.36-1.4.05-.53-.19-.89-.58-.93-.5-.05-.75.43-1.18,1.22-.51.93-1,1.82-1.93,1.73-.6-.06-1.56-.74-1.43-2.07.06-.59.34-1.25.9-1.65-.08-.05-.24-.16-.52-.23l.04-.4,1.82.18Z"/>
    <path class="st0" d="M357.25,242.84l.76-5.23.36.05c-.11.78.09.88.5.94l3.32.48c.38.06.63.05.75-.76l.36.05-.71,4.87-1.38-.12.06-.4c.97-.13,1.04-.51,1.14-1.22l.16-1.1-1.87-.27-.09.59c-.09.59,0,.73.55.85l-.06.42-1.76-.26.06-.4c.59.05.69-.1.77-.67l.09-.6-1.25-.18c-.69-.1-.88-.13-1,.72l-.07.47c-.05.36-.18,1.25,1.1,1.65l-.06.41-1.73-.3Z"/>
    <path class="st0" d="M357.72,245.8c-.39-.08-.63-.06-.79.73l-.36-.07.57-2.92.36.07c-.15.76.04.88.45.96l3.31.65c.4.08.63.06.78-.71l.36.07-.22,1.35c-.04.22-.11.68-.22,1.17-.11.5-.25,1.03-.41,1.38-.26.58-.8,1.16-1.59,1-.51-.1-.96-.54-1.01-1.52-.33.4-.64.54-1.56.96-.86.4-1.02.54-1.14.96l-.36-.07.31-1.56c.28-.18.71-.36,1.14-.54l.66-.28c.83-.35.87-.38,1.02-1.15l.04-.22-1.37-.27ZM359.51,246.15l-.05.27c-.11.55-.29,1.53.78,1.74,1.06.21,1.26-.88,1.38-1.6l-2.11-.41Z"/>
    <path class="st0" d="M361.02,251.32l-.7,2.93-.35-.08c.18-.77,0-.9-.41-1l-3.27-.78c-.39-.09-.63-.08-.82.71l-.35-.08.7-2.93.35.08c-.18.77,0,.9.41,1l3.27.78c.4.1.63.08.82-.71l.35.08Z"/>
    <path class="st0" d="M353.6,258.61l1.41-5.1.35.1c-.21.76-.02.89.38,1l3.23.9c.37.1.62.13.84-.66l.35.1-1.32,4.74-1.36-.29.11-.39c.98,0,1.09-.38,1.28-1.07l.3-1.07-1.82-.51-.16.58c-.16.58-.1.73.44.91l-.11.41-1.71-.47.11-.39c.58.12.7-.01.85-.56l.16-.59-1.21-.34c-.67-.19-.85-.24-1.08.58l-.13.46c-.1.35-.34,1.22.88,1.78l-.11.4-1.68-.51Z"/>
    <path class="st0" d="M355.13,260.17l-.13.38c-.64-.03-1.7.08-2.04,1.13-.19.58.02,1.05.43,1.18.48.16.82-.21,1.47-.97,1.06-1.23,1.73-1.25,2.18-1.1.65.21,1.23,1.07.87,2.18-.18.54-.59.96-1.05,1.18.08.07.19.16.4.28l-.13.39-1.42-.46.13-.39c.27,0,1.29-.03,1.63-1.07.16-.5,0-.91-.37-1.03-.48-.16-.82.26-1.41.93-.69.8-1.37,1.56-2.26,1.27-.58-.19-1.37-1.06-.95-2.33.18-.56.6-1.14,1.24-1.42-.07-.07-.2-.21-.46-.34l.13-.38,1.74.57Z"/>
    <path class="st0" d="M349.43,269.45c.15.11.26.14.35-.07l1.06-2.68.35.14c.43,1.27,1.25,3.12,2.4,3.58.65.26,1.11-.08,1.27-.5.18-.44,0-.88-.34-1.01-.19-.08-.4-.05-.57-.03-.07,0-.07,0-.06-.21v-.31c0-.09.02-.17.02-.18.03-.07.38-.12.72.02.62.25.94.99.49,2.11-.58,1.46-1.6,1.31-1.96,1.17-.77-.31-1.19-1.32-1.51-2.2-.08-.23-.42-1.28-.49-1.49l-1.02,2.56-.84-.55.14-.34Z"/>
    <path class="st0" d="M351.44,271.79c1.3.58,1.58,1.04,1.76,1.38.2.37.35.9.04,1.59-.29.66-.76.93-1.21,1.03-.37.09-.92.19-2.12-.34-1.06-.47-1.44-.91-1.65-1.45-.23-.59-.13-1.11.02-1.44.33-.75,1.29-1.59,3.15-.77ZM352.9,274.6c.32-.71-.45-1.08-1.8-1.68s-2.14-.92-2.46-.21c-.34.77.69,1.19,1.8,1.68,1,.44,2.1,1.02,2.46.21Z"/>
    <path class="st0" d="M349.85,279.9c.05-.01.1,0,.11-.01.47-.05.59-.15.78-.47l.32.17-1.31,2.45-.32-.17c.15-.28.29-.54.08-.65-.09-.05-.2-.06-.65-.01l-1.67.15.69,1.36c.14.28.24.45.39.53.33.18.5-.16.65-.43l.32.17-1.02,1.9-.32-.17c.2-.45.12-.65-.31-1.52l-.94-1.92-1.12-.6c-.32-.17-.57-.27-.96.46l-.32-.17,1.41-2.63.32.17c-.37.69-.23.86.15,1.06l1.05.56,2.67-.26Z"/>
    <path class="st0" d="M340.51,287.23l2.78-4.5.31.19c-.41.67-.27.85.08,1.06l2.85,1.77c.33.2.56.29.99-.4l.31.19-2.59,4.18-1.22-.66.21-.34c.94.27,1.15-.06,1.53-.67l.58-.94-1.61-.99-.32.51c-.32.51-.3.67.17,1l-.22.36-1.51-.93.21-.34c.52.28.67.18.97-.3l.32-.52-1.07-.66c-.59-.37-.75-.47-1.2.26l-.25.4c-.19.31-.66,1.07.35,1.95l-.22.35-1.47-.96Z"/>
    <path class="st0" d="M340.3,289.56c-.08-.14-.17-.28-.27-.35-.3-.21-.57.18-.69.34l-.3-.21,1.19-1.66.3.21c-.27.38-.27.68.23,1.48l2.29,3.73-.24.34-4.44-.94c-.72-.15-.98-.21-1.33.28l-.3-.21,1.63-2.28.3.21c-.21.3-.4.55-.19.7.04.03.12.07.23.1l.67.14,1.12-1.57-.2-.32ZM340.71,290.24l-.93,1.3,1.99.42-1.06-1.72Z"/>
    <path class="st0" d="M335.93,295.13c-.3-.25-.52-.36-1.04.26l-.28-.23,1.91-2.28.28.23c-.49.59-.39.79-.06,1.06l2.59,2.16c.31.26.52.36,1.03-.25l.28.24-.85,1.08c-.14.17-.42.55-.76.92-.34.38-.72.78-1.03,1.01-.51.38-1.26.63-1.88.12-.4-.34-.59-.93-.15-1.82-.48.2-.82.17-1.83.1-.95-.06-1.15-.02-1.46.3l-.28-.23,1.02-1.22c.34-.02.8.02,1.26.07l.72.07c.89.09.95.09,1.45-.52l.14-.17-1.07-.9ZM337.33,296.3l-.18.21c-.36.43-.99,1.2-.16,1.9.83.69,1.53-.16,1.98-.74l-1.65-1.38Z"/>
    <path class="st0" d="M333.37,299.53l-.28.29c-.56-.3-1.56-.68-2.33.12-.43.44-.44.95-.13,1.25.36.35.83.17,1.75-.22,1.5-.63,2.1-.36,2.44-.03.49.48.63,1.5-.18,2.34-.39.4-.95.6-1.46.6.04.1.11.23.24.43l-.29.3-1.07-1.04.29-.3c.25.12,1.17.54,1.94-.24.37-.38.41-.81.13-1.09-.36-.35-.85-.13-1.68.22-.98.41-1.92.8-2.59.15-.43-.42-.76-1.55.17-2.51.41-.42,1.04-.76,1.73-.73-.03-.09-.09-.28-.26-.51l.28-.29,1.31,1.28Z"/>
    <path class="st0" d="M327.55,309.74c-2.09,1.68-3.74.69-4.34-.06-.89-1.11-.85-2.87.85-4.23,1.84-1.48,3.54-.89,4.33.09.86,1.08.89,2.83-.83,4.21ZM324.34,305.82c-1.42,1.14-.36,2.56-.02,2.99.68.85,1.71,1.56,2.91.6,1.27-1.02.69-2.18.05-2.97-.37-.46-1.49-1.77-2.94-.61Z"/>
    <path class="st0" d="M319.76,309.94c-.19-.28-.36-.52-1.03-.08l-.1.07-.2-.3,2.55-1.67.2.3c-.65.42-.59.65-.37.99l1.84,2.81c.21.32.39.5,1.06.06l.2.3-4.07,2.66-.8-1.14.35-.23c.72.67,1.1.42,1.63.07l.89-.58-1.03-1.58-.47.3c-.42.27-.51.44-.22.94l-.34.22-.97-1.49.34-.23c.34.45.5.48.96.18l.45-.29-.87-1.33Z"/>
    <path class="st0" d="M312.95,313.86c-.18-.38-.35-.53-1.06-.18l-.16-.33,2.69-1.3.16.33c-.7.34-.67.57-.49.94l1.47,3.04c.17.35.32.54,1.04.2l.16.33-1.51.77c-.33.17-.68.35-1.02.5-.29.13-2.22,1.08-2.87-.27-.63-1.3.95-2.16,1.85-2.6l.35-.17-.61-1.26ZM313.74,315.5l-.36.18c-.57.27-1.28.68-.83,1.61.48.99,1.42.51,2.12.15l-.93-1.93Z"/>
    <path class="st0" d="M304.2,316.38l4.97-1.82.12.34c-.74.27-.73.5-.59.89l1.16,3.15c.13.36.26.58,1.03.29l.12.34-4.62,1.69-.55-1.27.38-.14c.58.79.94.67,1.62.42l1.04-.38-.65-1.77-.56.21c-.56.21-.65.34-.49.89l-.4.15-.61-1.67.38-.14c.24.54.42.56.95.36l.57-.21-.43-1.18c-.24-.65-.31-.83-1.11-.54l-.45.16c-.35.13-1.19.44-.93,1.75l-.39.14-.56-1.67Z"/>
    <path class="st0" d="M303.19,321.76c.52-.14,1.17-.3.95-1.37l.4-.1.38,1.47-5.68,1.48-.38-1.47.4-.1c.38,1.02,1.01.85,1.37.76l.73-.19-.98-3.79c-.1-.38-.21-.6-.99-.39l-.09-.35,2.88-.75.09.35c-.75.2-.78.42-.68.83l.98,3.79.61-.16Z"/>
    <path class="st0" d="M292.2,318.96l5.23-.8.05.36c-.78.12-.82.35-.76.75l.51,3.32c.06.38.14.61.95.49l.05.36-4.86.75-.29-1.36.4-.06c.41.89.79.84,1.5.73l1.1-.17-.29-1.86-.59.09c-.59.09-.7.21-.65.78l-.42.06-.27-1.75.4-.06c.12.58.3.63.86.54l.6-.09-.19-1.24c-.1-.69-.13-.88-.98-.75l-.47.07c-.36.06-1.25.19-1.26,1.53l-.41.06-.22-1.74Z"/>
    <path class="st0" d="M289.52,320.12c-.02-.4-.09-.63-.89-.6v-.36s2.96-.12,2.96-.12v.36c-.76.03-.83.24-.81.66l.13,3.37c.02.4.09.63.88.6v.37s-1.36.09-1.36.09c-.22,0-.69.05-1.19.05-.51,0-1.06,0-1.44-.08-.62-.12-1.31-.51-1.34-1.31-.02-.52.3-1.06,1.25-1.33-.47-.22-.67-.5-1.3-1.29-.58-.74-.76-.87-1.2-.88v-.36s1.57-.06,1.57-.06c.24.23.52.61.79.98l.43.58c.53.72.57.76,1.36.73h.22s-.05-1.4-.05-1.4ZM289.59,321.95h-.28c-.56.03-1.56.08-1.52,1.17.04,1.08,1.14,1.02,1.88.98l-.08-2.14Z"/>
    <path class="st0" d="M284.5,321.14l-.4-.03c-.13-.62-.48-1.63-1.59-1.71-.61-.04-1.01.27-1.04.7-.04.51.4.74,1.3,1.2,1.45.74,1.62,1.38,1.59,1.85-.05.68-.74,1.45-1.91,1.36-.56-.04-1.07-.34-1.39-.73-.05.09-.11.23-.18.46l-.41-.03.11-1.49.41.03c.07.26.34,1.25,1.43,1.33.53.04.89-.21.92-.6.04-.5-.45-.74-1.25-1.14-.94-.48-1.84-.95-1.78-1.89.04-.6.7-1.58,2.03-1.49.59.04,1.25.31,1.67.86.05-.09.15-.25.22-.53l.4.03-.13,1.83Z"/>
    <path class="st0" d="M277.56,319.47c.07-.36.08-.63-.71-.78l.07-.36,2.88.57-.07.36c-.75-.15-.86.07-.94.46l-.65,3.29c-.07.37-.07.63.7.78l-.07.36-2.88-.57.07-.36c.76.15.88-.07.96-.45l.25-1.29-2.7-.53-.25,1.29c-.07.37-.08.63.7.78l-.07.36-2.87-.56.07-.36c.76.15.87-.08.94-.46l.65-3.29c.07-.35.09-.62-.7-.78l.07-.36,2.87.56-.07.36c-.75-.15-.86.07-.94.46l-.31,1.57,2.7.53.31-1.57Z"/>
    <path class="st0" d="M270.94,318.06c.11-.12.21-.24.25-.36.12-.34-.34-.49-.53-.56l.12-.34,1.94.65-.12.34c-.44-.15-.73-.06-1.35.65l-2.9,3.28-.39-.13-.4-4.52c-.07-.74-.08-1-.65-1.19l.12-.34,2.65.89-.12.34c-.35-.12-.65-.22-.73.03-.02.05-.03.13-.03.25l.06.68,1.83.61.25-.28ZM270.41,318.66l-1.51-.51.18,2.03,1.33-1.52Z"/>
    <path class="st0" d="M263.59,318.79l1.4-2.85c.24-.49.34-.72-.42-1.1l.16-.33,1.97.97-.16.33c-.76-.37-.87-.15-1.12.34l-1.33,2.72c-.25.51-.35.71.42,1.09l-.16.33-1.95-.96-.11-4.25-3.43,2.51-1.91-.94.16-.33c.71.35.88.19,1.06-.18l1.48-3.01c.17-.35.22-.59-.5-.95l.16-.33,2.67,1.31-.16.33c-.7-.34-.86-.17-1.04.19l-1.48,3.01,3.92-2.91.24.12.12,4.9Z"/>
    <path class="st0" d="M255.24,310.54c.32-.45.45-.66-.26-1.17l.21-.3,1.79,1.28-.21.3c-.69-.49-.83-.27-1.14.16l-1.58,2.22c-.41.58-.57.83.04,1.37l-.21.3-1.41-1.01-.66-4.89-1.42,1.98c-.3.42-.44.66.23,1.14l-.21.3-1.8-1.29.21-.3c.71.51.84.33,1.17-.13l2.46-3.45.33.24.74,5.64,1.71-2.4Z"/>
    <path class="st0" d="M247.98,310.43l-2.26-1.97.24-.27c.59.52.79.41,1.07.1l1.46-1.68c.32-.37.49-.63.57-.89.14-.46-.09-1.01-.51-1.38-.46-.4-1.1-.57-1.54-.38-.38.17-.64.44-.92.75l-1.26,1.45c-.37.42-.51.6.14,1.17l-.24.27-1.65-1.44.24-.27c.62.54.8.34,1.14-.05l1.29-1.48c.4-.46.63-.72,1.1-.86.93-.29,1.82.34,2.19.66.53.47,1.21,1.35,1.01,2.2-.11.5-.33.75-.62,1.08l-1.46,1.68c-.27.3-.37.52.23,1.04l-.24.27Z"/>
    <path class="st0" d="M244.14,301.02c.28-.27.41-.48-.15-1.06l.26-.25,2.06,2.15-.26.25c-.53-.56-.74-.47-1.04-.18l-2.43,2.34c-.29.28-.41.48.14,1.05l-.27.26-.98-.96c-.16-.16-.5-.48-.83-.85-.34-.38-.7-.8-.9-1.13-.32-.55-.49-1.32.09-1.88.38-.36.99-.48,1.83.05-.14-.5-.08-.84.1-1.83.17-.93.14-1.14-.14-1.48l.26-.25,1.1,1.14c-.01.34-.11.79-.2,1.24l-.15.71c-.19.88-.19.93.36,1.5l.16.16,1.01-.97ZM242.82,302.29l-.19-.2c-.39-.4-1.09-1.12-1.87-.36-.78.75,0,1.53.52,2.05l1.55-1.49Z"/>
    <path class="st0" d="M240.04,298l-.26-.31c.36-.52.84-1.48.12-2.33-.39-.47-.9-.54-1.23-.26-.39.33-.25.81.04,1.76.48,1.55.14,2.13-.22,2.43-.53.44-1.56.47-2.31-.42-.36-.43-.5-1-.44-1.51-.1.03-.24.08-.45.19l-.26-.32,1.15-.96.26.32c-.14.23-.66,1.11.04,1.95.34.41.77.49,1.07.24.38-.32.22-.83-.05-1.69-.31-1.01-.6-1.99.12-2.59.46-.39,1.62-.6,2.48.43.38.45.65,1.12.54,1.8.1-.02.28-.06.53-.21l.26.31-1.41,1.17Z"/>
    <path class="st0" d="M235.25,288.73l3.13,4.26-.29.21c-.47-.64-.68-.56-1.02-.32l-2.71,1.99c-.31.23-.48.41,0,1.07l-.29.21-2.91-3.96,1.07-.89.24.32c-.6.78-.38,1.09.04,1.67l.66.9,1.52-1.12-.36-.48c-.36-.48-.51-.53-.99-.22l-.25-.34,1.43-1.05.24.32c-.45.38-.42.56-.08,1.02l.36.49,1.01-.74c.56-.41.72-.53.21-1.21l-.28-.38c-.22-.3-.75-1.02-1.94-.41l-.24-.33,1.44-1Z"/>
    <path class="st0" d="M232.87,286.92c.33-.21.5-.39.06-1.07l.31-.2,1.6,2.51-.31.2c-.41-.65-.64-.6-.99-.38l-2.84,1.82c-.34.22-.5.39-.07,1.06l-.31.2-.77-1.13c-.12-.19-.39-.57-.65-1-.26-.44-.53-.92-.66-1.28-.21-.6-.22-1.39.45-1.82.44-.28,1.07-.28,1.78.4-.04-.52.09-.83.46-1.77.35-.88.36-1.09.16-1.48l.31-.2.85,1.34c-.08.33-.27.75-.44,1.18l-.29.66c-.36.82-.37.87.05,1.54l.12.19,1.18-.75ZM231.33,287.91l-.15-.23c-.3-.47-.85-1.31-1.76-.72-.91.58-.3,1.5.1,2.11l1.81-1.16Z"/>
    <path class="st0" d="M226.66,285.16l-1.49-2.61.32-.18c.39.68.61.66.98.45l2.91-1.67c.35-.2.51-.38.11-1.08l.32-.18,1.49,2.61-.32.18c-.39-.68-.61-.66-.98-.45l-2.91,1.67c-.36.2-.51.37-.11,1.08l-.32.18Z"/>
    <path class="st0" d="M227.11,274.76l2.42,4.7-.32.17c-.36-.7-.59-.67-.95-.48l-2.98,1.54c-.34.18-.54.33-.17,1.05l-.32.17-2.25-4.38,1.2-.71.18.36c-.72.67-.55,1.02-.22,1.66l.51.99,1.68-.86-.28-.53c-.27-.53-.42-.6-.94-.37l-.19-.37,1.58-.81.18.36c-.51.3-.51.48-.24.99l.28.54,1.12-.58c.62-.32.79-.41.4-1.16l-.22-.42c-.17-.33-.58-1.12-1.85-.71l-.19-.37,1.58-.77Z"/>
    <path class="st0" d="M224.94,274.67l-.17-.37c.49-.41,1.2-1.2.74-2.21-.25-.55-.72-.75-1.11-.58-.46.21-.46.71-.43,1.71.04,1.62-.44,2.09-.86,2.28-.62.28-1.63.04-2.11-1.02-.23-.51-.22-1.1-.02-1.57-.11,0-.25.01-.49.06l-.17-.38,1.36-.62.17.38c-.2.19-.93.89-.48,1.89.22.48.61.68.97.52.46-.21.43-.75.41-1.64-.03-1.06-.04-2.07.81-2.46.55-.25,1.73-.14,2.28,1.07.24.54.33,1.25.04,1.88.1,0,.29.02.57-.06l.17.37-1.67.75Z"/>
    <path class="st0" d="M222.88,263.97c-.18.02-.29.07-.21.29l1.02,2.7-.35.13c-1.18-.65-3.02-1.46-4.18-1.02-.66.25-.76.81-.61,1.23.17.44.59.65.94.52.2-.07.33-.23.44-.36.05-.06.06-.04.19.11l.2.23c.06.06.11.13.11.14.03.08-.2.34-.54.47-.63.24-1.36-.1-1.79-1.23-.56-1.47.29-2.05.66-2.18.78-.29,1.77.18,2.6.61.21.11,1.17.66,1.37.77l-.98-2.57.99-.16.13.34Z"/>
    <path class="st0" d="M219.83,263.6c-1.35.45-1.86.3-2.23.17-.4-.14-.87-.43-1.1-1.14-.23-.68-.06-1.2.2-1.58.21-.32.55-.76,1.79-1.18,1.1-.37,1.68-.3,2.2-.04.57.28.84.73.96,1.08.26.77.12,2.05-1.81,2.69ZM216.85,262.51c.25.74,1.07.49,2.47.03,1.35-.45,2.2-.76,1.96-1.5-.27-.8-1.31-.41-2.47-.03-1.03.35-2.24.66-1.96,1.5Z"/>
    <path class="st0" d="M215.53,256.55s-.06.07-.07.08c-.31.36-.33.51-.25.88l-.35.09-.7-2.69.35-.09c.08.31.15.59.38.53.1-.03.18-.09.49-.43l1.12-1.25-1.43-.53c-.3-.11-.49-.17-.65-.13-.36.09-.26.46-.19.75l-.35.09-.55-2.09.35-.09c.16.47.35.56,1.25.9l1.99.77,1.22-.32c.35-.09.6-.19.39-.99l.35-.09.75,2.89-.35.09c-.2-.75-.41-.79-.83-.68l-1.15.3-1.78,2Z"/>
    <path class="st0" d="M217.35,244.83l1.06,5.18-.36.07c-.16-.77-.38-.8-.79-.72l-3.29.67c-.38.08-.61.17-.44.97l-.36.07-.98-4.82,1.34-.36.08.4c-.87.45-.8.83-.66,1.53l.22,1.09,1.85-.38-.12-.59c-.12-.59-.24-.69-.81-.61l-.08-.41,1.74-.36.08.4c-.57.15-.62.33-.5.89l.12.6,1.23-.25c.68-.14.87-.18.7-1.01l-.09-.47c-.07-.36-.25-1.24-1.59-1.18l-.08-.4,1.73-.31Z"/>
    <path class="st0" d="M215.89,242.98c.15.04.31.08.43.06.36-.05.29-.52.26-.73l.36-.05.3,2.02-.36.05c-.07-.46-.28-.68-1.19-.91l-4.24-1.11-.06-.41,3.86-2.39c.63-.39.85-.52.77-1.12l.36-.05.4,2.77-.36.05c-.05-.36-.1-.67-.35-.64-.05,0-.13.03-.23.09l-.58.37.28,1.91.36.09ZM215.12,242.78l-.23-1.58-1.73,1.08,1.96.5Z"/>
    <path class="st0" d="M215.15,235.95c.39-.03.62-.11.55-.92l.36-.03.25,2.96-.36.03c-.06-.77-.28-.83-.7-.8l-3.36.28c-.4.03-.62.12-.56.9l-.37.03-.15-1.36c-.02-.22-.08-.69-.11-1.19-.03-.51-.04-1.06.02-1.44.09-.63.45-1.33,1.25-1.4.52-.04,1.07.25,1.39,1.19.2-.48.47-.7,1.23-1.35.72-.62.83-.8.83-1.24l.36-.03.13,1.58c-.22.25-.59.54-.94.83l-.56.45c-.7.56-.74.6-.67,1.39l.02.22,1.39-.12ZM213.33,236.1l-.02-.28c-.05-.55-.14-1.55-1.22-1.46-1.08.09-.97,1.19-.89,1.92l2.14-.18Z"/>
    <path class="st0" d="M213.87,231.02v-.4c.6-.19,1.56-.64,1.53-1.75-.02-.61-.37-.98-.8-.96-.51.01-.7.48-1.06,1.41-.59,1.51-1.21,1.75-1.68,1.77-.69.02-1.52-.6-1.55-1.76-.02-.56.23-1.1.59-1.46-.1-.04-.24-.08-.47-.13v-.41s1.48-.04,1.48-.04v.41c-.24.1-1.19.46-1.17,1.56.01.53.3.86.69.85.5-.01.69-.52,1.01-1.35.39-.99.76-1.93,1.7-1.96.6-.02,1.64.54,1.68,1.87.02.59-.18,1.28-.69,1.75.09.04.26.13.54.16v.4s-1.82.05-1.82.05Z"/>
    <path class="st0" d="M210.39,219.94c.12-2.68,1.95-3.26,2.91-3.22,1.42.06,2.71,1.26,2.62,3.43-.11,2.36-1.66,3.25-2.92,3.19-1.38-.06-2.71-1.2-2.61-3.4ZM215.45,220.13c.08-1.82-1.68-1.96-2.23-1.98-1.09-.05-2.3.26-2.37,1.79-.07,1.62,1.18,1.96,2.2,2,.59.03,2.32.05,2.4-1.81Z"/>
    <path class="st0" d="M215.25,213.92c.34.03.63.04.7-.75v-.13s.37.03.37.03l-.29,3.03-.36-.03c.07-.77-.14-.87-.55-.91l-3.34-.32c-.39-.04-.63,0-.71.79l-.36-.03.45-4.83,1.39.09-.04.41c-.97.14-1.01.6-1.07,1.23l-.1,1.05,1.88.18.05-.55c.05-.5-.03-.67-.59-.76l.04-.4,1.77.17-.04.41c-.57-.02-.69.09-.74.64l-.05.54,1.58.15Z"/>
    <path class="st0" d="M216.2,206.1c.41.06.63.02.76-.77l.36.06-.46,2.95-.36-.06c.12-.77-.09-.88-.49-.94l-3.33-.52c-.38-.06-.63-.04-.75.74l-.37-.06.22-1.68c.05-.36.1-.76.17-1.13.06-.31.37-2.44,1.85-2.21,1.43.22,1.24,2.01,1.09,3l-.06.39,1.38.21ZM214.39,205.82l.06-.4c.1-.62.16-1.44-.86-1.59-1.08-.17-1.23.88-1.33,1.66l2.12.33Z"/>
    <path class="st0" d="M218.81,197.33l-1.04,5.19-.36-.07c.15-.77-.04-.89-.45-.97l-3.29-.66c-.38-.08-.63-.08-.79.72l-.36-.07.97-4.83,1.38.19-.08.4c-.98.08-1.06.46-1.2,1.16l-.22,1.09,1.85.37.12-.59c.12-.59.05-.73-.51-.88l.08-.41,1.74.35-.08.4c-.58-.08-.7.06-.81.63l-.12.6,1.23.25c.68.14.87.17,1.04-.66l.09-.47c.07-.36.25-1.24-1.01-1.71l.08-.4,1.72.39Z"/>
    <path class="st0" d="M214.6,193.83c-.13.52-.29,1.18.75,1.49l-.1.4-1.47-.36,1.41-5.69,1.47.36-.1.4c-1.08-.15-1.23.48-1.32.85l-.18.73,3.8.94c.38.09.62.1.82-.68l.35.09-.72,2.89-.35-.09c.19-.76,0-.89-.4-.99l-3.8-.94-.15.61Z"/>
    <path class="st0" d="M222.02,185.34l-1.51,5.07-.35-.1c.23-.76.04-.89-.36-1l-3.22-.96c-.37-.11-.62-.14-.85.64l-.35-.1,1.4-4.72,1.35.32-.12.39c-.98-.01-1.1.35-1.3,1.04l-.32,1.07,1.81.54.17-.58c.17-.58.11-.72-.42-.92l.12-.4,1.7.51-.12.39c-.57-.13-.7,0-.86.55l-.17.58,1.21.36c.66.2.85.25,1.09-.56l.14-.46c.1-.35.36-1.21-.85-1.8l.12-.4,1.67.55Z"/>
    <path class="st0" d="M222,182.33c.37.13.61.15.88-.61l.34.12-.99,2.81-.34-.12c.26-.73.09-.87-.31-1.01l-3.18-1.12c-.38-.13-.61-.15-.88.59l-.35-.12.42-1.31c.07-.21.21-.66.39-1.13.19-.48.4-.98.61-1.31.34-.53.96-1.03,1.72-.76.49.17.88.67.78,1.65.38-.35.71-.44,1.68-.73.91-.27,1.09-.39,1.26-.79l.34.12-.53,1.5c-.31.14-.76.26-1.2.37l-.7.18c-.87.23-.92.25-1.18.99l-.07.21,1.32.46ZM220.27,181.72l.09-.26c.19-.52.51-1.47-.52-1.84-1.02-.36-1.37.68-1.6,1.38l2.02.71Z"/>
    <path class="st0" d="M222.82,177.33l.15-.37c.63.07,1.7.05,2.12-.98.23-.56.05-1.04-.34-1.21-.47-.19-.83.15-1.54.86-1.15,1.15-1.82,1.12-2.25.94-.64-.26-1.15-1.16-.71-2.24.21-.52.65-.91,1.13-1.1-.07-.08-.18-.17-.38-.31l.16-.38,1.38.57-.16.38c-.27-.01-1.29-.06-1.71.95-.2.49-.08.91.29,1.06.46.19.84-.2,1.47-.83.75-.75,1.48-1.46,2.34-1.1.56.23,1.29,1.16.78,2.39-.22.55-.68,1.1-1.34,1.32.07.07.19.22.43.37l-.15.37-1.7-.69Z"/>
    <path class="st0" d="M226.46,171.17c.33.16.59.23.93-.5l.33.16-1.26,2.65-.33-.16c.33-.69.15-.85-.21-1.02l-3.03-1.44c-.34-.16-.59-.22-.93.48l-.33-.16,1.26-2.65.33.16c-.34.7-.16.87.2,1.04l1.19.56,1.18-2.48-1.19-.57c-.34-.16-.59-.23-.93.48l-.33-.16,1.26-2.64.33.16c-.34.7-.13.86.21,1.02l3.03,1.44c.32.15.58.24.93-.48l.33.16-1.26,2.64-.33-.16c.33-.69.15-.85-.21-1.02l-1.45-.69-1.18,2.48,1.45.69Z"/>
    <path class="st0" d="M229.34,165.05c.1.13.2.26.3.31.32.18.55-.24.65-.42l.32.18-1,1.78-.32-.18c.23-.41.19-.7-.39-1.45l-2.69-3.46.2-.36,4.52.45c.74.07,1,.1,1.29-.42l.32.18-1.37,2.44-.32-.18c.18-.32.33-.59.11-.72-.04-.02-.12-.06-.24-.07l-.68-.06-.94,1.68.23.29ZM228.86,164.41l.78-1.39-2.02-.2,1.25,1.59Z"/>
    <path class="st0" d="M229.84,157.79l2.64,1.76c.46.3.67.44,1.14-.27l.3.2-1.22,1.83-.3-.2c.47-.7.26-.85-.19-1.15l-2.52-1.68c-.47-.31-.66-.44-1.13.27l-.3-.2,1.2-1.8,4.23.45-2.04-3.73,1.18-1.77.3.2c-.44.66-.3.84.04,1.07l2.79,1.86c.32.21.56.3,1.01-.37l.3.2-1.65,2.47-.3-.2c.43-.65.28-.83-.05-1.06l-2.79-1.86,2.37,4.27-.15.22-4.87-.52Z"/>
    <path class="st0" d="M238.99,150.48c.42.36.62.51,1.18-.15l.28.24-1.44,1.67-.28-.24c.55-.64.35-.8-.06-1.15l-2.07-1.78c-.54-.46-.78-.64-1.36-.08l-.28-.24,1.13-1.31,4.93-.23-1.85-1.59c-.39-.34-.62-.49-1.16.13l-.28-.24,1.44-1.68.28.24c-.57.66-.41.81.03,1.18l3.21,2.76-.26.31-5.68.24,2.23,1.92Z"/>
    <path class="st0" d="M239.72,143.26l2.15-2.08.25.26c-.57.55-.48.76-.19,1.06l1.55,1.6c.34.35.59.54.84.65.44.18,1.01,0,1.42-.39.44-.42.66-1.05.51-1.5-.13-.4-.38-.68-.67-.98l-1.34-1.38c-.39-.4-.56-.56-1.18.04l-.25-.26,1.57-1.52.25.26c-.59.57-.41.77-.04,1.14l1.37,1.42c.43.44.67.69.77,1.17.21.95-.49,1.79-.84,2.12-.51.49-1.45,1.09-2.28.82-.49-.16-.72-.39-1.03-.71l-1.56-1.6c-.28-.29-.48-.41-1.06.15l-.25-.26Z"/>
    <path class="st0" d="M249.44,140.25c.25.31.44.45,1.07-.05l.23.29-2.33,1.85-.23-.28c.6-.48.54-.69.28-1.02l-2.1-2.64c-.25-.32-.44-.45-1.06.04l-.23-.29,1.05-.88c.18-.14.53-.45.93-.75.41-.3.86-.62,1.21-.78.57-.27,1.36-.36,1.86.27.33.41.39,1.03-.22,1.81.51-.09.84,0,1.81.28.91.26,1.13.25,1.49,0l.23.28-1.24.98c-.33-.04-.78-.19-1.22-.32l-.69-.22c-.85-.27-.91-.28-1.53.21l-.18.14.87,1.09ZM248.3,138.81l.22-.17c.44-.34,1.22-.97.54-1.83-.67-.85-1.53-.15-2.09.32l1.33,1.68Z"/>
    <path class="st0" d="M252.86,136.46l.34-.22c.48.42,1.37,1,2.3.4.51-.33.64-.83.41-1.19-.28-.43-.77-.35-1.76-.17-1.6.29-2.13-.12-2.38-.51-.37-.57-.28-1.6.69-2.24.47-.31,1.06-.38,1.55-.26-.02-.11-.05-.24-.13-.47l.35-.22.81,1.25-.35.22c-.22-.17-1.02-.79-1.94-.19-.44.29-.58.7-.36,1.03.27.42.8.31,1.68.16,1.04-.19,2.05-.36,2.56.43.33.51.4,1.68-.72,2.41-.5.32-1.19.51-1.85.33.01.1.03.29.14.55l-.34.22-1-1.54Z"/>
    <path class="st0" d="M262.69,132.97l-4.69,2.45-.17-.32c.7-.37.66-.59.47-.96l-1.56-2.98c-.18-.34-.33-.54-1.05-.16l-.17-.32,4.36-2.28.72,1.19-.36.19c-.68-.71-1.02-.54-1.66-.21l-.98.52.88,1.67.53-.28c.53-.28.6-.42.36-.95l.37-.2.82,1.57-.36.19c-.31-.51-.49-.5-.99-.24l-.54.28.58,1.12c.32.61.41.79,1.17.39l.42-.22c.33-.17,1.12-.59.7-1.86l.37-.19.78,1.58Z"/>
    <path class="st0" d="M264.85,130.99c.14.37.29.56,1.04.27l.13.34-2.77,1.08-.13-.34c.72-.28.72-.51.56-.9l-1.23-3.14c-.15-.38-.29-.56-1.02-.28l-.13-.35,1.26-.54c.21-.08.63-.27,1.11-.44.48-.17,1-.34,1.39-.39.63-.09,1.41.05,1.7.8.19.49.06,1.1-.74,1.67.51.06.8.25,1.65.79.8.51,1,.57,1.42.44l.13.34-1.48.58c-.31-.14-.69-.41-1.07-.66l-.59-.41c-.74-.51-.79-.53-1.52-.25l-.21.08.51,1.3ZM264.19,129.29l.26-.1c.52-.2,1.45-.58,1.05-1.59-.39-1.01-1.41-.59-2.09-.31l.78,2Z"/>
    <path class="st0" d="M267.95,125.23l2.89-.84.1.35c-.76.22-.79.44-.67.85l.94,3.22c.11.39.24.58,1.02.36l.1.35-2.89.84-.1-.35c.76-.22.79-.44.67-.85l-.94-3.22c-.12-.4-.24-.58-1.02-.36l-.1-.35Z"/>
    <path class="st0" d="M277.95,128.29l-5.18,1.06-.07-.36c.77-.16.8-.39.72-.79l-.67-3.29c-.08-.38-.17-.61-.97-.44l-.07-.36,4.82-.99.36,1.34-.4.08c-.45-.87-.83-.8-1.53-.66l-1.09.22.38,1.85.59-.12c.59-.12.69-.24.61-.81l.41-.08.36,1.74-.4.08c-.15-.57-.33-.62-.89-.5l-.6.12.25,1.23c.14.68.18.87,1.01.7l.47-.1c.36-.07,1.24-.25,1.18-1.59l.4-.08.31,1.73Z"/>
    <path class="st0" d="M278.67,126.26l.4-.04c.24.59.77,1.52,1.87,1.4.61-.07.94-.45.9-.88-.05-.51-.53-.66-1.49-.94-1.56-.46-1.85-1.07-1.9-1.53-.07-.68.47-1.56,1.63-1.69.56-.06,1.11.14,1.5.47.03-.1.06-.24.09-.48l.41-.04.16,1.48-.41.04c-.12-.25-.56-1.16-1.65-1.05-.53.06-.83.37-.79.76.05.5.57.64,1.43.9,1.02.3,1.99.6,2.09,1.53.07.6-.4,1.68-1.73,1.83-.59.06-1.29-.08-1.8-.54-.04.09-.11.27-.12.56l-.4.04-.2-1.82Z"/>
  </g>
  <path class="st0" d="M280.99,115.32c55.08-4.92,87.4,53.66,89.74,101.57,2.09,42.73-18.79,96.74-62.3,111.16-59.24,19.64-101.53-42.43-104.5-94.74-2.74-48.22,22.05-113.08,77.06-117.99ZM284.25,117.28c-53.39,2.31-80.52,65.35-78.36,112.1,2.3,49.87,38.7,112.45,96.81,98.17,48.52-11.93,68.04-70.39,65.42-115.24s-34.4-97.16-83.86-95.03Z"/>
  <path class="st0" d="M66.64,349.48c-.8,1.06-1.19,0-1.31-.97-.79-6.22,1.27-16.32,4.45-21.74.18-.31.98-2.09,1.44-1.18-.59,2.08-1.98,3.8-2.65,5.86-.49,1.53-1.94,6.66-1.94,7.88v10.15Z"/>
  <path class="st0" d="M76.44,369.12c-1.89.37-1.04-.55-1.47-1.44-.88-1.82-2.01-3.82-2.44-5.76,2.63,1.5,4.13,4.11,3.91,7.2Z"/>
  <path class="st0" d="M542.02,236.88l-1.29-.32c6.72-8.96-3.06-19.76,1.63-29.14.89,1.4-.24,3.16-.15,4.73.48,8.57,5.29,16.39-.19,24.73Z"/>
  <path class="st0" d="M529.61,238.84c-1.24.27-1.58-.62-2.23-1.36-3.66-4.15-4.25-12.62-6.25-17.96-.78-2.08-2.01-3.55-2.62-5.55,7.38,6.04,5.22,17.64,11.11,24.87Z"/>
  <path class="st0" d="M534.83,235.57l-3.26-20.94c.94-.16.89,1.14,1.11,1.82,1.87,5.95,2.27,12.91,2.15,19.12Z"/>
  <path class="st0" d="M339.32,354.71l26.15-16.36c.68.7-2.02,3.07-2.6,3.61-6.09,5.63-15.64,10.35-23.54,12.75Z"/>
  <path class="st0" d="M262.48,375.66c-.21-.03-6.27-1.98-3.26-1.99l12.74,1.99c-3.02-.27-6.54.37-9.48,0Z"/>
  <path class="st0" d="M248.43,251.29h21.25c3.76,0,5.42-9.37,6.87-10.79,1.05-1.02,4.72-1.61,5.59-.38,1.52,2.17-3.36,18.69-3.13,22.47l-1.61,1.66-48.32-.46c-1.3-1.03-1.31-3.67-.3-5.01,15.69-15.92,42.09-34.37,37.8-60.03-1.03-6.16-7.15-10.65-13.23-10.31-14.45.81-16.42,23.92-.99,24.54,1.78,2.87-2.01,6.33-4.71,7.1-14.49,4.17-21.52-11.75-17.2-23.77,6.79-18.9,39.7-20.6,48.95-2.56,11.5,22.41-15.41,45.4-30.99,57.53ZM230.77,261.76h45.77l3.27-19.64c-1.74-.33-1.14.37-1.6,1.31-1.81,3.7-3.18,8.54-7.66,10.04-3.3,1.1-23.58,1.9-26.04.75-2.55-1.19-.65-2.68.64-3.93,14.14-13.72,37.58-26.17,33.85-50.24-3.63-23.46-50.23-21.92-46.93,7.05.99,8.65,10.62,14.62,17.64,8.51-5.46-1.95-9.77-4.87-10.45-11.13-2.35-21.5,25.53-25.79,29.92-5.73,5.25,24.05-22.04,46.42-37.8,60.67l-.61,2.33Z"/>
  <path class="st0" d="M310.39,181.41c26.43-3.62,38.65,28.87,35.29,50.39-6.77,43.39-54.34,44.99-62.3,1.85-3.47-18.81,4.96-49.21,27.01-52.23ZM311.04,184.03c-18.2,2.47-26.65,25.99-26.02,42.08.81,20.74,18.48,46.45,41.17,33.3,29.32-16.98,18.98-80.02-15.15-75.39Z"/>
  <path class="st0" d="M268.05,225.1c2.37-6.09,4.68-12.07,5.24-18.68l-2.3-14.04c7.92,9.74,5.2,24.07-2.93,32.73Z"/>
  <path class="st0" d="M274.58,255.87c.43,1.52-1.1,1.69-2.15,2.07-6.94,2.54-16.09.78-23.35.54-.15-1.14,1.48-.61,2.28-.65,7.59-.32,16.05.2,23.22-1.96Z"/>
  <path class="st0" d="M236,205.79c.28,2.09,2.02,5.08,2.62,7.19-1.18.22-2.22-2.53-2.53-3.35-1.33-3.48-1.63-5.9-1.31-9.65.06-.71.3-3.62,1.22-3.68.28,3-.39,6.58,0,9.49Z"/>
  <path class="st0" d="M314.25,186.08c14.91-.21,17.87,17.9,18.56,29.51.69,11.58.79,39.19-12.47,43.87-17.66,6.24-23.34-11.83-24.21-25.48-.89-13.98-1.85-47.61,18.12-47.89ZM314.33,188.62c-17.65.25-16.37,33.18-15.58,45.35s4.52,27.07,19.53,23.41c9.53-2.32,11.38-17.23,11.89-25.42.71-11.65,1.39-43.59-15.83-43.35Z"/>
  <path class="st0" d="M295.5,248.66c-1.02-.52-1.83-2.85-2.27-3.93-5.52-13.62-6.07-29.12.33-42.54,1.22-.15.48,1.31.36,1.99-.74,4-2.01,7.99-2.32,12.09-.83,11.12,1.27,21.71,3.91,32.39Z"/>
  <path class="st0" d="M334.73,248.01c-1.22.15-.48-1.31-.36-1.99.68-3.7,2.01-7.65,2.32-11.43.9-11.22-1.34-22.24-3.91-33.04l4.09,9.32c3.83,12.37,3.39,25.41-2.14,37.15Z"/>
  <path class="st0" d="M285.87,150.1c-.21-.45-.55-.85-1.01-1.05-.44-.19-1.1-.23-1.53.01-.49.28-.4.91,0,1.24.13.11.36.19.02.25-1.05.19-2.08.08-2.78-.79-.61-.76-.62-2.24-.15-3.07.55-.96,1.76-1.25,2.79-1.08,1.18.19,2.11,1.23,2.81,2.12-.33-1.05-.7-2.13-.8-3.24-.12-1.27.09-2.27.67-3.39.22-.43.84-1.55,1.28-1.73.19-.08.33,0,.48.13.49.43,1.2,1.73,1.43,2.35.75,1.95.14,4.01-.49,5.89.46-.6.98-1.18,1.6-1.61.71-.49,1.42-.65,2.29-.52,1.61.23,2.24,1.51,2.02,3.04-.09.67-.36,1.16-.91,1.56-.64.47-1.47.47-2.23.36-.51-.08-.15-.17.02-.35.33-.36.34-.92-.12-1.17s-1.11-.18-1.56.02-.77.6-.96,1.03h.3c.38,0,.66.42.62.78-.03.28-.33.6-.62.6h-.33c-.05.3.03.5.28.66.38.23.84.25,1.26.12.13-.04.39-.18.51-.16.11.01.1.12.09.2-.02.41-.24,1-.56,1.27-.42.36-.87.36-1.4.36-.04,0-.11-.03-.15,0-.02.01-.09.25-.1.3-.17.45-.42.85-.78,1.18-.41.39-.69.42-1.12.03-.38-.34-.63-.77-.81-1.24-.02-.05-.07-.24-.09-.26-.05-.04-.11-.01-.16-.01-.6,0-1.13-.02-1.54-.51-.21-.25-.38-.76-.4-1.08-.01-.16-.02-.26.17-.23.21.03.45.19.7.22.5.08,1.42-.14,1.28-.81,0-.01,0-.02-.02-.03h-.31c-.33,0-.63-.36-.63-.68s.3-.69.63-.69h.3Z"/>
  <path class="st0" d="M285.87,296.5c-.21.45-.55.85-1.01,1.05-.44.19-1.1.23-1.53-.01-.49-.28-.4-.91,0-1.24.13-.11.36-.19.02-.25-1.05-.19-2.08-.08-2.78.79-.61.76-.62,2.24-.15,3.07.55.96,1.76,1.25,2.79,1.08,1.18-.19,2.11-1.23,2.81-2.12-.33,1.05-.7,2.13-.8,3.24-.12,1.27.09,2.27.67,3.39.22.43.84,1.55,1.28,1.73.19.08.33,0,.48-.13.49-.43,1.2-1.73,1.43-2.35.75-1.95.14-4.01-.49-5.89.46.6.98,1.18,1.6,1.61.71.49,1.42.65,2.29.52,1.61-.23,2.24-1.51,2.02-3.04-.09-.67-.36-1.16-.91-1.56-.64-.47-1.47-.47-2.23-.36-.51.08-.15.17.02.35.33.36.34.92-.12,1.17s-1.11.18-1.56-.02-.77-.6-.96-1.03h.3c.38,0,.66-.42.62-.78-.03-.28-.33-.6-.62-.6h-.33c-.05-.3.03-.5.28-.66.38-.23.84-.25,1.26-.12.13.04.39.18.51.16.11-.01.1-.12.09-.2-.02-.41-.24-1-.56-1.27-.42-.36-.87-.36-1.4-.36-.04,0-.11.03-.15,0-.02-.01-.09-.25-.1-.3-.17-.45-.42-.85-.78-1.18-.41-.39-.69-.42-1.12-.03-.38.34-.63.77-.81,1.24-.02.05-.07.24-.09.26-.05.04-.11.01-.16.01-.6,0-1.13.02-1.54.51-.21.25-.38.76-.4,1.08-.01.16-.02.26.17.23.21-.03.45-.19.7-.22.5-.08,1.42.14,1.28.81,0,.01,0,.02-.02.03h-.31c-.33,0-.63.36-.63.68s.3.69.63.69h.3Z"/>
  <g>
    <path class="st0" d="M31.1,453.89c0,3.99-2.03,7.15-4.05,8.46-2.74,1.79-6.43,2.14-11.02,2.14h-4.29v8.34c0,7.63,0,8.94,5,8.94h1.31v1.31H0v-1.31h1.01c5,0,5-1.31,5-8.94v-19.36c0-8.52-.18-8.52-6.02-8.52v-1.31c3.93-.24,12.51-.42,13.88-.42,5.84,0,17.22.18,17.22,10.66ZM11.74,463.07h2.8c3.1,0,10.43,0,10.43-8.94,0-9.47-6.97-9.47-10.54-9.47-1.49,0-2.03.06-2.68.12v18.29Z"/>
    <path class="st0" d="M42.18,467.36c-.06.83-.12,1.79-.12,2.8,0,3.04.12,12.33,7.8,12.33,1.31,0,5.36-.12,7.57-4.77h1.37c-.18.83-2.5,6.31-9.71,6.31-5.24,0-11.86-3.99-11.86-12.69,0-7.39,4.89-13.05,11.62-13.05,6.2,0,9.77,4.59,9.95,9.06h-16.62ZM53.67,466.17c.06-.36.12-.66.12-1.19,0-3.93-2.8-5.36-5.18-5.36-5.3,0-6.08,5-6.31,6.55h11.38Z"/>
    <path class="st0" d="M76.49,460.57v14.42c0,3.28,0,7.03,3.57,7.03,2.03,0,3.1-1.61,3.63-2.38l.89.54c-1.85,3.87-5.78,3.87-6.2,3.87-2.2,0-4.29-1.19-5.18-2.92-.77-1.43-.89-2.68-.89-7.03v-13.52h-3.46v-1.31c2.62-.12,5.78-1.85,6.67-7.45h.95v7.45h7.21v1.31h-7.21Z"/>
    <path class="st0" d="M98.05,467.36c-.06.83-.12,1.79-.12,2.8,0,3.04.12,12.33,7.8,12.33,1.31,0,5.36-.12,7.57-4.77h1.37c-.18.83-2.5,6.31-9.71,6.31-5.24,0-11.86-3.99-11.86-12.69,0-7.39,4.89-13.05,11.62-13.05,6.2,0,9.77,4.59,9.95,9.06h-16.62ZM109.55,466.17c.06-.36.12-.66.12-1.19,0-3.93-2.8-5.36-5.18-5.36-5.3,0-6.08,5-6.31,6.55h11.38Z"/>
    <path class="st0" d="M132.96,474.92c0,6.08,0,6.85,3.51,6.85h.83v1.31h-12.63v-1.31c4.11,0,4.11-.24,4.11-6.85v-6.73c0-6.61,0-6.85-4.11-6.85v-1.31c2.68-.36,5.78-1.31,6.73-1.61l.42-.12c.3.95.83,2.86.83,6.26,1.85-4.41,5.42-6.26,7.63-6.26,2.74,0,4.17,2.2,4.17,3.63,0,1.07-.83,2.03-1.97,2.03-1.43,0-1.85-1.19-2.09-1.79-.3-.66-.71-1.79-1.67-1.79-1.67,0-5.78,2.86-5.78,8.94v5.6Z"/>
    <path class="st0" d="M154.17,476h1.13c.6,2.86,2.8,6.73,7.03,6.73,3.81,0,4.41-3.16,4.41-4.23,0-3.1-2.62-4.35-5.78-5.9-2.86-1.43-6.73-3.34-6.73-7.68,0-2.86,2.14-6.61,6.37-6.61,2.14,0,3.81.89,5.18,2.5.48-.54,1.07-1.97,1.13-2.09h1.07v7.39h-1.07c-.48-2.26-2.38-6.49-6.2-6.49-2.56,0-3.87,1.91-3.87,3.63,0,2.74,2.86,4.05,5.6,5.3,3.16,1.43,7.15,3.28,7.15,8.46,0,4.05-2.98,7.03-7.21,7.03-3.1,0-4.47-1.37-5.84-2.68-.6.66-1.13,1.91-1.25,2.44h-1.13v-7.8Z"/>
    <path class="st0" d="M204.09,474.92c0,6.55,0,6.85,4.05,6.85v1.31h-12.33v-1.31c4.11,0,4.11-.3,4.11-6.85v-7.68c0-5.54-1.67-7.15-5.18-7.15-2.74,0-5.36,2.8-7.27,5.24v9.59c0,6.37,0,6.85,3.75,6.85v1.31h-12.09v-1.31c4.17,0,4.17-.24,4.17-6.85v-23.77c0-4.17,0-5.54-3.93-5.54v-1.31c2.44,0,5.78-.54,7.69-1.25h.42v20.2c2.98-3.16,5.54-4.94,8.64-4.94,5.3,0,7.98,2.8,7.98,8.22v8.4Z"/>
    <path class="st0" d="M242.93,478.74c-.12,2.68-1.61,4.94-4.89,4.94-3.87,0-4.35-2.74-4.65-4.17-2.92,2.08-6.31,4.17-9.59,4.17-2.68,0-5.9-1.61-5.9-5.06s2.74-6.26,10.96-9.59l4.53-1.85v-1.19c0-3.51-.54-6.37-5.42-6.37-2.09,0-4.47.48-4.89,2.56-.24,1.25-.54,3.28-2.5,3.28-.89,0-1.79-.6-1.79-1.67,0-1.61,2.38-5.48,9.71-5.48,9.06,0,9.06,5.42,9.06,8.34v9.65c0,3.45,0,5.24,1.85,5.24.72,0,2.03-.36,2.44-2.8h1.07ZM233.4,468.55l-3.16,1.31c-3.1,1.25-7.51,3.63-7.51,7.63,0,2.09,1.13,4.11,3.46,4.11,2.68,0,6.2-2.8,7.21-3.63v-9.41Z"/>
    <path class="st0" d="M266.76,460.33c-3.99,0-6.49,3.34-7.68,5.12v9.47c0,6.43,0,6.85,3.93,6.85v1.31h-12.03v-1.31c3.93,0,3.93-.36,3.93-6.85v-7.09c0-6.49,0-6.85-3.93-6.85v-1.31c2.03-.24,4.59-.83,6.55-1.37h.77c.48,1.37.72,3.69.77,4.94,2.5-2.98,5.6-4.94,9.23-4.94,5.36,0,6.91,3.28,7.21,5.18,2.86-3.34,5.84-5.18,9.47-5.18,5.24,0,7.45,2.86,7.45,7.74v8.88c0,6.37,0,6.85,3.93,6.85v1.31h-12.21v-1.31c4.11,0,4.11-.3,4.11-6.85v-7.45c0-3.16,0-7.15-4.83-7.15-3.99,0-6.49,3.34-7.68,5.12v9.47c0,6.43,0,6.85,3.93,6.85v1.31h-12.03v-1.31c3.93,0,3.93-.48,3.93-6.85v-7.09c0-2.62.48-7.51-4.83-7.51Z"/>
    <path class="st0" d="M333.41,446.87v28.24c0,4.17.83,6.49,6.91,6.67v1.31h-14.71v-1.31c6.73-.48,6.37-3.16,6.37-6.67v-21.63c0-7.98-.42-8.52-5.84-8.52v-1.31h11.62l23.35,31.04v-23.77c0-3.34-.42-5.9-6.73-5.96v-1.31h14.3v1.31c-5.78.54-6.14,2.68-6.14,6.37v32.65h-1.25l-27.88-37.11Z"/>
    <path class="st0" d="M401.56,474.86c0,6.37,0,6.91,3.63,6.91v1.31c-2.03,0-4.77.18-6.37.95h-.42c-.95-1.73-1.01-4.35-1.01-5.72-1.49,2.68-4.77,5.72-9.11,5.72-6.91,0-7.39-5.48-7.39-7.98v-8.64c0-6.49,0-6.85-3.93-6.85v-1.31h8.1v16.5c0,2.5,0,6.26,4.59,6.26,1.61,0,7.74-1.43,7.74-8.52v-6.08c0-6.61,0-6.85-4.17-6.85v-1.31h8.34v15.61Z"/>
    <path class="st0" d="M422.65,474.92c0,6.08,0,6.85,3.52,6.85h.83v1.31h-12.63v-1.31c4.11,0,4.11-.24,4.11-6.85v-6.73c0-6.61,0-6.85-4.11-6.85v-1.31c2.68-.36,5.78-1.31,6.73-1.61l.42-.12c.3.95.83,2.86.83,6.26,1.85-4.41,5.42-6.26,7.63-6.26,2.74,0,4.17,2.2,4.17,3.63,0,1.07-.83,2.03-1.97,2.03-1.43,0-1.85-1.19-2.09-1.79-.3-.66-.71-1.79-1.67-1.79-1.67,0-5.78,2.86-5.78,8.94v5.6Z"/>
    <path class="st0" d="M443.86,476h1.13c.6,2.86,2.8,6.73,7.03,6.73,3.81,0,4.41-3.16,4.41-4.23,0-3.1-2.62-4.35-5.78-5.9-2.86-1.43-6.73-3.34-6.73-7.68,0-2.86,2.14-6.61,6.37-6.61,2.14,0,3.81.89,5.18,2.5.48-.54,1.07-1.97,1.13-2.09h1.07v7.39h-1.07c-.48-2.26-2.38-6.49-6.2-6.49-2.56,0-3.87,1.91-3.87,3.63,0,2.74,2.86,4.05,5.6,5.3,3.16,1.43,7.15,3.28,7.15,8.46,0,4.05-2.98,7.03-7.21,7.03-3.1,0-4.47-1.37-5.84-2.68-.6.66-1.13,1.91-1.25,2.44h-1.13v-7.8Z"/>
    <path class="st0" d="M474.6,467.36c-.06.83-.12,1.79-.12,2.8,0,3.04.12,12.33,7.8,12.33,1.31,0,5.36-.12,7.57-4.77h1.37c-.18.83-2.5,6.31-9.71,6.31-5.24,0-11.85-3.99-11.85-12.69,0-7.39,4.89-13.05,11.62-13.05,6.2,0,9.77,4.59,9.95,9.06h-16.62ZM486.09,466.17c.06-.36.12-.66.12-1.19,0-3.93-2.8-5.36-5.18-5.36-5.3,0-6.08,5-6.31,6.55h11.38Z"/>
    <path class="st0" d="M509.5,474.92c0,6.08,0,6.85,3.51,6.85h.83v1.31h-12.63v-1.31c4.11,0,4.11-.24,4.11-6.85v-6.73c0-6.61,0-6.85-4.11-6.85v-1.31c2.68-.36,5.78-1.31,6.73-1.61l.42-.12c.3.95.83,2.86.83,6.26,1.85-4.41,5.42-6.26,7.63-6.26,2.74,0,4.17,2.2,4.17,3.63,0,1.07-.83,2.03-1.97,2.03-1.43,0-1.85-1.19-2.09-1.79-.3-.66-.71-1.79-1.67-1.79-1.67,0-5.78,2.86-5.78,8.94v5.6Z"/>
    <path class="st0" d="M537.98,474.92c0,5.18-.42,6.85,3.28,6.85h.89v1.31h-12.87v-1.31h1.01c2.68,0,3.52-.36,3.52-4.53v-9.53c0-6.55-.36-6.55-4.53-6.55v-1.31c1.79-.06,5.6-.83,8.1-1.55h.6v16.62ZM535.3,443.05c1.67,0,2.98,1.43,2.98,3.1s-1.31,3.1-2.98,3.1-3.04-1.43-3.04-3.1,1.31-3.1,3.04-3.1Z"/>
    <path class="st0" d="M555.91,467.36c-.06.83-.12,1.79-.12,2.8,0,3.04.12,12.33,7.8,12.33,1.31,0,5.36-.12,7.57-4.77h1.37c-.18.83-2.5,6.31-9.71,6.31-5.24,0-11.85-3.99-11.85-12.69,0-7.39,4.89-13.05,11.62-13.05,6.2,0,9.77,4.59,9.95,9.06h-16.62ZM567.41,466.17c.06-.36.12-.66.12-1.19,0-3.93-2.8-5.36-5.18-5.36-5.3,0-6.08,5-6.31,6.55h11.38Z"/>
    <path class="st0" d="M583.49,476h1.13c.6,2.86,2.8,6.73,7.03,6.73,3.81,0,4.41-3.16,4.41-4.23,0-3.1-2.62-4.35-5.78-5.9-2.86-1.43-6.73-3.34-6.73-7.68,0-2.86,2.14-6.61,6.37-6.61,2.14,0,3.81.89,5.18,2.5.48-.54,1.07-1.97,1.13-2.09h1.07v7.39h-1.07c-.48-2.26-2.38-6.49-6.2-6.49-2.56,0-3.87,1.91-3.87,3.63,0,2.74,2.86,4.05,5.6,5.3,3.16,1.43,7.15,3.28,7.15,8.46,0,4.05-2.98,7.03-7.21,7.03-3.1,0-4.47-1.37-5.84-2.68-.6.66-1.13,1.91-1.25,2.44h-1.13v-7.8Z"/>
  </g>
</svg>